<?xml version="1.0" encoding="UTF-8" standalone="no"?>
<!-- This is a Stata 16.1 generated SVG file (http://www.stata.com) -->

<svg version="1.1" width="5.50in" height="4.00in" viewBox="0 0 3960 2880" xmlns="http://www.w3.org/2000/svg" xmlns:xlink="http://www.w3.org/1999/xlink">
	<desc>Stata Graph - Graph</desc>
	<rect x="0" y="0" width="3960" height="2880" style="fill:#EAF2F3;stroke:none"/>
	<rect x="0.00" y="0.00" width="3959.88" height="2880.00" style="fill:#EAF2F3"/>
	<rect x="2.88" y="2.88" width="3954.12" height="2874.24" style="fill:none;stroke:#EAF2F3;stroke-width:5.76"/>
	<rect x="524.08" y="100.86" width="3334.94" height="2388.33" style="fill:#FFFFFF"/>
	<rect x="526.96" y="103.74" width="3329.18" height="2382.57" style="fill:none;stroke:#FFFFFF;stroke-width:5.76"/>
	<line x1="524.08" y1="2425.82" x2="3859.02" y2="2425.82" style="stroke:#EAF2F3;stroke-width:8.64"/>
	<line x1="524.08" y1="1671.91" x2="3859.02" y2="1671.91" style="stroke:#EAF2F3;stroke-width:8.64"/>
	<line x1="524.08" y1="918.01" x2="3859.02" y2="918.01" style="stroke:#EAF2F3;stroke-width:8.64"/>
	<line x1="524.08" y1="164.22" x2="3859.02" y2="164.22" style="stroke:#EAF2F3;stroke-width:8.64"/>
	<defs>
		<path id="path_oGrfwshz" d="M927.38 2425.82 L927.38 2425.82 L948.67 2425.82 L969.95 2425.82 L991.11 2425.82 L1012.40 2425.82 L1033.68 2425.82 L1054.85 2425.82 L1076.13 2425.82 L1097.41 2425.82 L1118.58 2425.82 L1139.86 2425.82 L1161.15 2425.82 L1182.43 2425.82 L1203.59 2425.82 L1224.88 2425.82 L1246.16 2425.82 L1267.32 2425.82 L1288.61 2425.82 L1309.89 2425.82 L1331.06 2425.82 L1352.34 2425.82 L1373.63 2425.82 L1394.79 2425.70 L1416.07 2425.70 L1437.36 2425.70 L1458.64 2425.58 L1479.80 2425.45 L1501.09 2425.20 L1522.37 2424.96 L1543.53 2424.59 L1564.82 2424.09 L1586.10 2423.47 L1607.27 2422.61 L1628.55 2421.49 L1649.84 2420.13 L1671.00 2418.52 L1692.28 2416.42 L1713.57 2413.94 L1734.85 2410.85 L1756.01 2407.26 L1777.30 2403.05 L1798.58 2398.10 L1819.74 2392.41 L1841.03 2385.97 L1862.31 2378.80 L1883.47 2370.75 L1904.76 2361.97 L1926.05 2352.31 L1947.21 2341.79 L1968.49 2330.66 L1989.78 2318.90 L2010.94 2306.52 L2032.22 2293.65 L2053.51 2280.41 L2074.79 2266.92 L2095.95 2253.43 L2117.24 2239.82 L2138.52 2226.33 L2159.68 2212.97 L2180.97 2199.97 L2202.26 2187.23 L2223.42 2174.73 L2244.70 2162.72 L2265.99 2150.97 L2287.15 2139.70 L2308.43 2128.94 L2329.72 2118.54 L2351.00 2108.52 L2372.16 2098.87 L2393.45 2089.71 L2414.73 2080.80 L2435.89 2072.38 L2457.18 2064.09 L2478.47 2056.17 L2499.63 2048.50 L2520.91 2040.95 L2542.20 2033.77 L2563.36 2026.72 L2584.64 2020.03 L2605.93 2013.48 L2627.21 2007.16 L2648.37 2001.10 L2669.66 1995.16 L2690.94 1989.59 L2712.11 1984.15 L2733.39 1978.95 L2754.68 1973.87 L2775.84 1969.05 L2797.12 1964.47 L2818.41 1960.01 L2839.57 1955.81 L2860.85 1951.72 L2882.14 1947.89 L2903.30 1944.05 L2924.58 1940.46 L2945.87 1937.12 L2967.15 1933.78 L2988.32 1930.68 L3009.60 1927.59 L3030.89 1924.74 L3052.05 1922.02 L3073.33 1919.30 L3094.62 1916.82 L3115.78 1914.35 L3137.06 1912.00 L3158.35 1909.77 L3179.51 1907.67 L3200.79 1905.56 L3222.08 1903.58 L3243.36 1901.60 L3264.53 1899.75 L3285.81 1898.01 L3307.09 1896.28 L3328.26 1894.67 L3349.54 1892.94 L3370.83 1891.45 L3391.99 1889.85 L3413.27 1888.36 L3434.56 1887.00 L3455.72 1885.51 L3477.00 1884.15 L3498.29 1882.79 L3519.57 1881.43 L3540.74 1880.07 L3562.02 1878.83 L3583.30 1877.47 L3604.47 1876.23 L3604.47 1818.93 L3583.30 1820.30 L3562.02 1821.78 L3540.74 1823.27 L3519.57 1824.63 L3498.29 1826.11 L3477.00 1827.60 L3455.72 1829.21 L3434.56 1830.69 L3413.27 1832.30 L3391.99 1833.91 L3370.83 1835.64 L3349.54 1837.37 L3328.26 1839.11 L3307.09 1840.96 L3285.81 1842.82 L3264.53 1844.80 L3243.36 1846.78 L3222.08 1848.88 L3200.79 1851.11 L3179.51 1853.34 L3158.35 1855.69 L3137.06 1858.16 L3115.78 1860.76 L3094.62 1863.36 L3073.33 1866.21 L3052.05 1869.05 L3030.89 1872.15 L3009.60 1875.24 L2988.32 1878.58 L2967.15 1882.05 L2945.87 1885.64 L2924.58 1889.47 L2903.30 1893.31 L2882.14 1897.52 L2860.85 1901.73 L2839.57 1906.30 L2818.41 1910.88 L2797.12 1915.83 L2775.84 1920.91 L2754.68 1926.11 L2733.39 1931.67 L2712.11 1937.37 L2690.94 1943.31 L2669.66 1949.49 L2648.37 1956.05 L2627.21 1962.61 L2605.93 1969.54 L2584.64 1976.72 L2563.36 1984.27 L2542.20 1991.94 L2520.91 1999.86 L2499.63 2008.03 L2478.47 2016.45 L2457.18 2025.23 L2435.89 2034.27 L2414.73 2043.55 L2393.45 2053.20 L2372.16 2063.35 L2351.00 2073.87 L2329.72 2084.76 L2308.43 2096.27 L2287.15 2108.15 L2265.99 2120.40 L2244.70 2133.27 L2223.42 2146.51 L2202.26 2160.25 L2180.97 2174.23 L2159.68 2188.71 L2138.52 2203.31 L2117.24 2218.29 L2095.95 2233.26 L2074.79 2248.24 L2053.51 2263.09 L2032.22 2277.69 L2010.94 2291.92 L1989.78 2305.53 L1968.49 2318.65 L1947.21 2330.90 L1926.05 2342.41 L1904.76 2353.06 L1883.47 2362.83 L1862.31 2371.74 L1841.03 2379.66 L1819.74 2386.84 L1798.58 2393.15 L1777.30 2398.72 L1756.01 2403.55 L1734.85 2407.63 L1713.57 2411.10 L1692.28 2414.07 L1671.00 2416.54 L1649.84 2418.52 L1628.55 2420.13 L1607.27 2421.49 L1586.10 2422.61 L1564.82 2423.35 L1543.53 2423.97 L1522.37 2424.46 L1501.09 2424.83 L1479.80 2425.20 L1458.64 2425.33 L1437.36 2425.45 L1416.07 2425.58 L1394.79 2425.70 L1373.63 2425.70 L1352.34 2425.82 L1331.06 2425.82 L1309.89 2425.82 L1288.61 2425.82 L1267.32 2425.82 L1246.16 2425.82 L1224.88 2425.82 L1203.59 2425.82 L1182.43 2425.82 L1161.15 2425.82 L1139.86 2425.82 L1118.58 2425.82 L1097.41 2425.82 L1076.13 2425.82 L1054.85 2425.82 L1033.68 2425.82 L1012.40 2425.82 L991.11 2425.82 L969.95 2425.82 L948.67 2425.82 L927.38 2425.82 L927.38 2425.82 Z" stroke-linejoin="round"/>
	</defs>
	<defs>
		<clipPath id="clipPath_qnfQTqRl">
			<use xlink:href="#path_oGrfwshz"/>
		</clipPath>
	</defs>
	<use xlink:href="#path_oGrfwshz" style="stroke:none;fill:#FF3333;fill-opacity:0.25"/>
	<use xlink:href="#path_oGrfwshz" style="fill:none;stroke:#FF0000;stroke-opacity:0.25;stroke-width:17.28" clip-path="url(#clipPath_qnfQTqRl)"/>
	<defs>
		<path id="path_zVxwfJhr" d="M927.38 2425.82 L927.38 2425.82 L948.67 2425.82 L969.95 2425.82 L991.11 2425.82 L1012.40 2425.82 L1033.68 2425.82 L1054.85 2425.82 L1076.13 2425.82 L1097.41 2425.82 L1118.58 2425.82 L1139.86 2425.82 L1161.15 2425.82 L1182.43 2425.82 L1203.59 2425.82 L1224.88 2425.82 L1246.16 2425.82 L1267.32 2425.82 L1288.61 2425.82 L1309.89 2425.82 L1331.06 2425.82 L1352.34 2425.82 L1373.63 2425.70 L1394.79 2425.70 L1416.07 2425.58 L1437.36 2425.45 L1458.64 2425.33 L1479.80 2425.08 L1501.09 2424.71 L1522.37 2424.21 L1543.53 2423.60 L1564.82 2422.85 L1586.10 2421.74 L1607.27 2420.38 L1628.55 2418.65 L1649.84 2416.54 L1671.00 2413.82 L1692.28 2410.48 L1713.57 2406.39 L1734.85 2401.69 L1756.01 2396.00 L1777.30 2389.32 L1798.58 2381.64 L1819.74 2372.73 L1841.03 2362.83 L1862.31 2351.57 L1883.47 2339.07 L1904.76 2325.34 L1926.05 2310.36 L1947.21 2294.27 L1968.49 2276.95 L1989.78 2258.63 L2010.94 2239.45 L2032.22 2219.53 L2053.51 2199.11 L2074.79 2178.19 L2095.95 2157.15 L2117.24 2136.12 L2138.52 2115.20 L2159.68 2094.53 L2180.97 2074.36 L2202.26 2054.56 L2223.42 2035.38 L2244.70 2016.69 L2265.99 1998.75 L2287.15 1981.30 L2308.43 1964.59 L2329.72 1948.50 L2351.00 1933.16 L2372.16 1918.31 L2393.45 1904.08 L2414.73 1890.46 L2435.89 1877.35 L2457.18 1864.60 L2478.47 1852.35 L2499.63 1840.47 L2520.91 1828.96 L2542.20 1817.82 L2563.36 1806.93 L2584.64 1796.53 L2605.93 1786.51 L2627.21 1776.73 L2648.37 1767.33 L2669.66 1758.29 L2690.94 1749.63 L2712.11 1741.22 L2733.39 1733.17 L2754.68 1725.38 L2775.84 1717.95 L2797.12 1710.90 L2818.41 1704.09 L2839.57 1697.53 L2860.85 1691.22 L2882.14 1685.16 L2903.30 1679.34 L2924.58 1673.89 L2945.87 1668.57 L2967.15 1663.50 L2988.32 1658.67 L3009.60 1653.97 L3030.89 1649.52 L3052.05 1645.31 L3073.33 1641.22 L3094.62 1637.26 L3115.78 1633.55 L3137.06 1629.96 L3158.35 1626.50 L3179.51 1623.16 L3200.79 1619.94 L3222.08 1616.97 L3243.36 1614.00 L3264.53 1611.15 L3285.81 1608.43 L3307.09 1605.71 L3328.26 1603.11 L3349.54 1600.63 L3370.83 1598.28 L3391.99 1595.93 L3413.27 1593.58 L3434.56 1591.35 L3455.72 1589.12 L3477.00 1587.02 L3498.29 1584.92 L3519.57 1582.81 L3540.74 1580.83 L3562.02 1578.73 L3583.30 1576.75 L3604.47 1574.77 L3604.47 401.46 L3583.30 406.16 L3562.02 410.99 L3540.74 415.69 L3519.57 420.52 L3498.29 425.47 L3477.00 430.42 L3455.72 435.49 L3434.56 440.56 L3413.27 445.89 L3391.99 451.33 L3370.83 456.78 L3349.54 462.47 L3328.26 468.41 L3307.09 474.47 L3285.81 480.66 L3264.53 487.22 L3243.36 493.90 L3222.08 500.83 L3200.79 508.13 L3179.51 515.56 L3158.35 523.48 L3137.06 531.52 L3115.78 540.06 L3094.62 548.85 L3073.33 558.13 L3052.05 567.78 L3030.89 577.81 L3009.60 588.33 L2988.32 599.34 L2967.15 610.73 L2945.87 622.73 L2924.58 635.23 L2903.30 648.22 L2882.14 661.84 L2860.85 676.07 L2839.57 690.92 L2818.41 706.51 L2797.12 722.60 L2775.84 739.43 L2754.68 757.00 L2733.39 775.32 L2712.11 794.38 L2690.94 814.18 L2669.66 834.72 L2648.37 856.13 L2627.21 878.28 L2605.93 901.30 L2584.64 925.18 L2563.36 949.93 L2542.20 975.43 L2520.91 1001.91 L2499.63 1029.26 L2478.47 1057.35 L2457.18 1086.44 L2435.89 1116.51 L2414.73 1147.57 L2393.45 1179.99 L2372.16 1213.65 L2351.00 1248.80 L2329.72 1285.43 L2308.43 1323.55 L2287.15 1363.27 L2265.99 1404.48 L2244.70 1447.30 L2223.42 1491.61 L2202.26 1537.39 L2180.97 1584.42 L2159.68 1632.56 L2138.52 1681.69 L2117.24 1731.44 L2095.95 1781.68 L2074.79 1831.93 L2053.51 1881.80 L2032.22 1930.81 L2010.94 1978.45 L1989.78 2024.24 L1968.49 2068.05 L1947.21 2109.26 L1926.05 2148.00 L1904.76 2183.76 L1883.47 2216.68 L1862.31 2246.50 L1841.03 2273.48 L1819.74 2297.49 L1798.58 2318.65 L1777.30 2337.09 L1756.01 2353.06 L1734.85 2366.79 L1713.57 2378.30 L1692.28 2388.08 L1671.00 2396.12 L1649.84 2402.68 L1628.55 2408.00 L1607.27 2412.21 L1586.10 2415.55 L1564.82 2418.27 L1543.53 2420.25 L1522.37 2421.74 L1501.09 2422.98 L1479.80 2423.84 L1458.64 2424.46 L1437.36 2424.83 L1416.07 2425.20 L1394.79 2425.45 L1373.63 2425.58 L1352.34 2425.70 L1331.06 2425.70 L1309.89 2425.82 L1288.61 2425.82 L1267.32 2425.82 L1246.16 2425.82 L1224.88 2425.82 L1203.59 2425.82 L1182.43 2425.82 L1161.15 2425.82 L1139.86 2425.82 L1118.58 2425.82 L1097.41 2425.82 L1076.13 2425.82 L1054.85 2425.82 L1033.68 2425.82 L1012.40 2425.82 L991.11 2425.82 L969.95 2425.82 L948.67 2425.82 L927.38 2425.82 L927.38 2425.82 Z" stroke-linejoin="round"/>
	</defs>
	<defs>
		<clipPath id="clipPath_uHdgpfVV">
			<use xlink:href="#path_zVxwfJhr"/>
		</clipPath>
	</defs>
	<use xlink:href="#path_zVxwfJhr" style="stroke:none;fill:#3333FF;fill-opacity:0.25"/>
	<use xlink:href="#path_zVxwfJhr" style="fill:none;stroke:#0000FF;stroke-opacity:0.25;stroke-width:17.28" clip-path="url(#clipPath_uHdgpfVV)"/>
	<path d=" M587.44 2425.95 L608.60 2425.95 L629.89 2425.95 L651.17 2425.95 L672.33 2425.95 L693.62 2425.95 L714.90 2425.95 L736.19 2425.95 L757.35 2425.95 L778.63 2425.95 L799.92 2425.95 L821.08 2425.95 L842.37 2425.95 L863.65 2425.95 L884.81 2425.95 L906.10 2425.95 L927.38 2425.95 L948.54 2425.95 L969.83 2425.95 L991.11 2425.95 L1012.40 2425.95 L1033.56 2425.95 L1054.85 2425.95 L1076.13 2425.95 L1097.29 2425.95 L1118.58 2425.95 L1139.86 2425.95 L1161.02 2425.95 L1182.31 2425.95 L1203.59 2425.95 L1224.75 2425.95 L1246.04 2425.95 L1267.32 2425.95 L1288.48 2425.95 L1309.77 2425.95 L1331.06 2425.82 L1352.34 2425.82 L1373.50 2425.82 L1394.79 2425.82 L1416.07 2425.70 L1437.23 2425.70 L1458.52 2425.58 L1479.80 2425.33 L1500.96 2425.08 L1522.25 2424.83 L1543.53 2424.34 L1564.69 2423.84 L1585.98 2423.10 L1607.27 2422.11 L1628.55 2421.00 L1649.71 2419.51 L1671.00 2417.66 L1692.28 2415.30 L1713.44 2412.58 L1734.73 2409.36 L1756.01 2405.53 L1777.17 2400.95 L1798.46 2395.75 L1819.74 2389.81 L1840.90 2383.00 L1862.19 2375.46 L1883.47 2366.92 L1904.76 2357.63 L1925.92 2347.49 L1947.21 2336.60 L1968.49 2324.84 L1989.65 2312.46 L2010.94 2299.47 L2032.22 2285.98 L2053.38 2272.12 L2074.67 2257.89 L2095.95 2243.66 L2117.11 2229.43 L2138.40 2215.19 L2159.68 2201.21 L2180.97 2187.47 L2202.13 2174.11 L2223.42 2161.11 L2244.70 2148.37 L2265.86 2136.24 L2287.15 2124.36 L2308.43 2113.10 L2329.59 2102.21 L2350.88 2091.69 L2372.16 2081.66 L2393.32 2072.01 L2414.61 2062.73 L2435.89 2053.82 L2457.06 2045.16 L2478.34 2036.86 L2499.63 2028.82 L2520.91 2021.02 L2542.07 2013.35 L2563.36 2006.05 L2584.64 1999.00 L2605.80 1992.19 L2627.09 1985.51 L2648.37 1979.20 L2669.53 1973.01 L2690.82 1967.07 L2712.11 1961.38 L2733.27 1955.93 L2754.55 1950.73 L2775.84 1945.66 L2797.12 1940.83 L2818.28 1936.13 L2839.57 1931.67 L2860.85 1927.47 L2882.01 1923.38 L2903.30 1919.42 L2924.58 1915.71 L2945.74 1912.12 L2967.03 1908.66 L2988.32 1905.31 L3009.48 1902.22 L3030.76 1899.13 L3052.05 1896.28 L3073.33 1893.43 L3094.49 1890.84 L3115.78 1888.24 L3137.06 1885.89 L3158.22 1883.53 L3179.51 1881.18 L3200.79 1879.08 L3221.95 1876.97 L3243.24 1874.99 L3264.53 1873.01 L3285.69 1871.16 L3306.97 1869.43 L3328.26 1867.57 L3349.42 1865.96 L3370.70 1864.23 L3391.99 1862.74 L3413.27 1861.13 L3434.43 1859.65 L3455.72 1858.16 L3477.00 1856.68 L3498.16 1855.19 L3519.45 1853.83 L3540.74 1852.47 L3561.90 1851.11 L3583.18 1849.75 L3604.47 1848.39" stroke-linejoin="round" style="fill:none;stroke:#FF0000;stroke-width:8.64"/>
	<path d=" M587.44 2425.95 L608.60 2425.95 L629.89 2425.95 L651.17 2425.95 L672.33 2425.95 L693.62 2425.95 L714.90 2425.95 L736.19 2425.95 L757.35 2425.95 L778.63 2425.95 L799.92 2425.95 L821.08 2425.95 L842.37 2425.95 L863.65 2425.95 L884.81 2425.95 L906.10 2425.95 L927.38 2425.95 L948.54 2425.95 L969.83 2425.95 L991.11 2425.95 L1012.40 2425.95 L1033.56 2425.95 L1054.85 2425.95 L1076.13 2425.95 L1097.29 2425.95 L1118.58 2425.95 L1139.86 2425.95 L1161.02 2425.95 L1182.31 2425.95 L1203.59 2425.95 L1224.75 2425.95 L1246.04 2425.95 L1267.32 2425.95 L1288.48 2425.82 L1309.77 2425.82 L1331.06 2425.82 L1352.34 2425.82 L1373.50 2425.70 L1394.79 2425.70 L1416.07 2425.45 L1437.23 2425.33 L1458.52 2425.08 L1479.80 2424.59 L1500.96 2424.09 L1522.25 2423.35 L1543.53 2422.36 L1564.69 2421.12 L1585.98 2419.39 L1607.27 2417.28 L1628.55 2414.56 L1649.71 2411.22 L1671.00 2406.89 L1692.28 2401.82 L1713.44 2395.50 L1734.73 2388.08 L1756.01 2379.29 L1777.17 2369.02 L1798.46 2357.02 L1819.74 2343.40 L1840.90 2327.93 L1862.19 2310.48 L1883.47 2291.18 L1904.76 2269.89 L1925.92 2246.75 L1947.21 2221.75 L1968.49 2195.15 L1989.65 2166.81 L2010.94 2137.11 L2032.22 2106.41 L2053.38 2074.61 L2074.67 2042.43 L2095.95 2009.89 L2117.11 1977.34 L2138.40 1945.16 L2159.68 1913.36 L2180.97 1882.05 L2202.13 1851.61 L2223.42 1821.90 L2244.70 1793.19 L2265.86 1765.47 L2287.15 1738.62 L2308.43 1712.88 L2329.59 1688.13 L2350.88 1664.37 L2372.16 1641.60 L2393.32 1619.69 L2414.61 1598.65 L2435.89 1578.36 L2457.06 1558.93 L2478.34 1539.99 L2499.63 1521.68 L2520.91 1503.98 L2542.07 1486.78 L2563.36 1470.20 L2584.64 1454.11 L2605.80 1438.64 L2627.09 1423.66 L2648.37 1409.19 L2669.53 1395.32 L2690.82 1381.96 L2712.11 1369.09 L2733.27 1356.71 L2754.55 1344.83 L2775.84 1333.32 L2797.12 1322.43 L2818.28 1311.91 L2839.57 1301.77 L2860.85 1292.11 L2882.01 1282.83 L2903.30 1274.05 L2924.58 1265.51 L2945.74 1257.34 L2967.03 1249.54 L2988.32 1242.12 L3009.48 1234.94 L3030.76 1228.13 L3052.05 1221.57 L3073.33 1215.39 L3094.49 1209.32 L3115.78 1203.51 L3137.06 1198.06 L3158.22 1192.74 L3179.51 1187.67 L3200.79 1182.72 L3221.95 1178.01 L3243.24 1173.56 L3264.53 1169.10 L3285.69 1164.90 L3306.97 1160.81 L3328.26 1156.85 L3349.42 1153.01 L3370.70 1149.30 L3391.99 1145.71 L3413.27 1142.25 L3434.43 1138.78 L3455.72 1135.44 L3477.00 1132.10 L3498.16 1128.88 L3519.45 1125.67 L3540.74 1122.57 L3561.90 1119.48 L3583.18 1116.38 L3604.47 1113.29" stroke-linejoin="round" style="fill:none;stroke:#0000FF;stroke-width:8.64"/>
	<line x1="524.08" y1="2489.19" x2="524.08" y2="100.86" style="stroke:#000000;stroke-width:5.76"/>
	<line x1="524.08" y1="2425.82" x2="484.11" y2="2425.82" style="stroke:#000000;stroke-width:5.76"/>
	<text x="464.06" y="2460.85" style="font-family:'Helvetica';font-size:99.99px;fill:#000000" text-anchor="end">0.00</text>
	<line x1="524.08" y1="1671.91" x2="484.11" y2="1671.91" style="stroke:#000000;stroke-width:5.76"/>
	<text x="464.06" y="1706.94" style="font-family:'Helvetica';font-size:99.99px;fill:#000000" text-anchor="end">0.05</text>
	<line x1="524.08" y1="918.01" x2="484.11" y2="918.01" style="stroke:#000000;stroke-width:5.76"/>
	<text x="464.06" y="953.03" style="font-family:'Helvetica';font-size:99.99px;fill:#000000" text-anchor="end">0.10</text>
	<line x1="524.08" y1="164.22" x2="484.11" y2="164.22" style="stroke:#000000;stroke-width:5.76"/>
	<text x="464.06" y="199.25" style="font-family:'Helvetica';font-size:99.99px;fill:#000000" text-anchor="end">0.15</text>
	<text x="190.71" y="1294.96" style="font-family:'Helvetica';font-size:99.99px;fill:#000000" transform="rotate(-90 190.71,1294.96)" text-anchor="middle">Cumulative mortality (%)</text>
	<line x1="524.08" y1="2489.19" x2="3859.02" y2="2489.19" style="stroke:#000000;stroke-width:5.76"/>
	<line x1="587.44" y1="2489.19" x2="587.44" y2="2529.16" style="stroke:#000000;stroke-width:5.76"/>
	<text x="587.44" y="2619.14" style="font-family:'Helvetica';font-size:99.99px;fill:#000000" text-anchor="middle">1 February</text>
	<line x1="1203.59" y1="2489.19" x2="1203.59" y2="2529.16" style="stroke:#000000;stroke-width:5.76"/>
	<text x="1203.59" y="2619.14" style="font-family:'Helvetica';font-size:99.99px;fill:#000000" text-anchor="middle">1 March</text>
	<line x1="1862.31" y1="2489.19" x2="1862.31" y2="2529.16" style="stroke:#000000;stroke-width:5.76"/>
	<text x="1862.31" y="2619.14" style="font-family:'Helvetica';font-size:99.99px;fill:#000000" text-anchor="middle">1 April</text>
	<line x1="2499.63" y1="2489.19" x2="2499.63" y2="2529.16" style="stroke:#000000;stroke-width:5.76"/>
	<text x="2499.63" y="2619.14" style="font-family:'Helvetica';font-size:99.99px;fill:#000000" text-anchor="middle">1 May</text>
	<line x1="3158.35" y1="2489.19" x2="3158.35" y2="2529.16" style="stroke:#000000;stroke-width:5.76"/>
	<text x="3158.35" y="2619.14" style="font-family:'Helvetica';font-size:99.99px;fill:#000000" text-anchor="middle">1 June</text>
	<line x1="3795.66" y1="2489.19" x2="3795.66" y2="2529.16" style="stroke:#000000;stroke-width:5.76"/>
	<text x="3795.66" y="2619.14" style="font-family:'Helvetica';font-size:99.99px;fill:#000000" text-anchor="middle">1 July</text>
	<text x="2191.61" y="2729.16" style="font-family:'Helvetica';font-size:99.99px;fill:#000000" text-anchor="middle">Date in 2020</text>
	<rect x="2968.39" y="135.39" width="856.10" height="326.34" style="fill:#FFFFFF"/>
	<rect x="2971.27" y="138.27" width="850.34" height="320.58" style="fill:none;stroke:#000000;stroke-width:5.76"/>
	<rect x="3011.58" y="178.58" width="374.34" height="99.99" style="fill:#FF3333;fill-opacity:0.25"/>
	<rect x="3015.90" y="182.90" width="365.70" height="91.35" style="fill:none;stroke:#FF0000;stroke-opacity:0.25;stroke-width:8.64"/>
	<rect x="3011.58" y="318.54" width="374.34" height="99.99" style="fill:#3333FF;fill-opacity:0.25"/>
	<rect x="3015.90" y="322.86" width="365.70" height="91.35" style="fill:none;stroke:#0000FF;stroke-opacity:0.25;stroke-width:8.64"/>
	<text x="3445.94" y="263.60" style="font-family:'Helvetica';font-size:99.99px;fill:#000000">No HIV</text>
	<text x="3445.94" y="403.57" style="font-family:'Helvetica';font-size:99.99px;fill:#000000">HIV</text>
</svg>
