<?xml version="1.0" encoding="UTF-8" standalone="no"?>
<!-- This is a Stata 16.1 generated SVG file (http://www.stata.com) -->

<svg version="1.1" width="5.50in" height="4.00in" viewBox="0 0 3960 2880" xmlns="http://www.w3.org/2000/svg" xmlns:xlink="http://www.w3.org/1999/xlink">
	<desc>Stata Graph - Graph</desc>
	<rect x="0" y="0" width="3960" height="2880" style="fill:#EAF2F3;stroke:none"/>
	<rect x="0.00" y="0.00" width="3959.88" height="2880.00" style="fill:#EAF2F3"/>
	<rect x="2.88" y="2.88" width="3954.12" height="2874.24" style="fill:none;stroke:#EAF2F3;stroke-width:5.76"/>
	<rect x="524.08" y="100.86" width="3334.94" height="2388.33" style="fill:#FFFFFF"/>
	<rect x="526.96" y="103.74" width="3329.18" height="2382.57" style="fill:none;stroke:#FFFFFF;stroke-width:5.76"/>
	<line x1="524.08" y1="2425.82" x2="3859.02" y2="2425.82" style="stroke:#EAF2F3;stroke-width:8.64"/>
	<line x1="524.08" y1="1671.91" x2="3859.02" y2="1671.91" style="stroke:#EAF2F3;stroke-width:8.64"/>
	<line x1="524.08" y1="918.01" x2="3859.02" y2="918.01" style="stroke:#EAF2F3;stroke-width:8.64"/>
	<line x1="524.08" y1="164.22" x2="3859.02" y2="164.22" style="stroke:#EAF2F3;stroke-width:8.64"/>
	<defs>
		<path id="path_xdTzGXCP" d="M948.67 2425.82 L948.67 2425.82 L969.95 2425.82 L991.11 2425.82 L1012.40 2425.82 L1033.68 2425.82 L1054.85 2425.82 L1076.13 2425.82 L1097.41 2425.82 L1118.58 2425.82 L1139.86 2425.82 L1161.15 2425.82 L1182.43 2425.82 L1203.59 2425.82 L1224.88 2425.82 L1246.16 2425.82 L1267.32 2425.82 L1288.61 2425.82 L1309.89 2425.82 L1331.06 2425.82 L1352.34 2425.82 L1373.63 2425.82 L1394.79 2425.82 L1416.07 2425.70 L1437.36 2425.70 L1458.64 2425.58 L1479.80 2425.45 L1501.09 2425.20 L1522.37 2424.96 L1543.53 2424.71 L1564.82 2424.21 L1586.10 2423.60 L1607.27 2422.85 L1628.55 2421.86 L1649.84 2420.63 L1671.00 2419.14 L1692.28 2417.28 L1713.57 2414.93 L1734.85 2412.21 L1756.01 2408.99 L1777.30 2405.16 L1798.58 2400.83 L1819.74 2395.75 L1841.03 2389.93 L1862.31 2383.50 L1883.47 2376.32 L1904.76 2368.40 L1926.05 2359.74 L1947.21 2350.46 L1968.49 2340.56 L1989.78 2330.04 L2010.94 2319.02 L2032.22 2307.64 L2053.51 2295.88 L2074.79 2283.88 L2095.95 2271.87 L2117.24 2259.75 L2138.52 2247.87 L2159.68 2235.98 L2180.97 2224.48 L2202.26 2213.09 L2223.42 2202.08 L2244.70 2191.43 L2265.99 2181.04 L2287.15 2171.14 L2308.43 2161.49 L2329.72 2152.33 L2351.00 2143.42 L2372.16 2134.88 L2393.45 2126.71 L2414.73 2118.91 L2435.89 2111.24 L2457.18 2103.94 L2478.47 2096.89 L2499.63 2090.08 L2520.91 2083.40 L2542.20 2076.96 L2563.36 2070.77 L2584.64 2064.71 L2605.93 2058.89 L2627.21 2053.20 L2648.37 2047.76 L2669.66 2042.56 L2690.94 2037.48 L2712.11 2032.66 L2733.39 2027.95 L2754.68 2023.50 L2775.84 2019.17 L2797.12 2014.96 L2818.41 2011.00 L2839.57 2007.16 L2860.85 2003.45 L2882.14 1999.99 L2903.30 1996.64 L2924.58 1993.43 L2945.87 1990.21 L2967.15 1987.24 L2988.32 1984.39 L3009.60 1981.67 L3030.89 1979.07 L3052.05 1976.60 L3073.33 1974.25 L3094.62 1971.89 L3115.78 1969.79 L3137.06 1967.69 L3158.35 1965.58 L3179.51 1963.73 L3200.79 1961.75 L3222.08 1960.01 L3243.36 1958.28 L3264.53 1956.67 L3285.81 1955.06 L3307.09 1953.45 L3328.26 1951.97 L3349.54 1950.61 L3370.83 1949.25 L3391.99 1947.89 L3413.27 1946.52 L3434.56 1945.29 L3455.72 1944.05 L3477.00 1942.81 L3498.29 1941.57 L3519.57 1940.46 L3540.74 1939.35 L3562.02 1938.23 L3583.30 1937.12 L3604.47 1936.01 L3625.75 1934.89 L3647.04 1933.78 L3647.04 1884.03 L3625.75 1885.14 L3604.47 1886.38 L3583.30 1887.62 L3562.02 1888.73 L3540.74 1889.97 L3519.57 1891.33 L3498.29 1892.57 L3477.00 1893.81 L3455.72 1895.17 L3434.56 1896.53 L3413.27 1897.89 L3391.99 1899.37 L3370.83 1900.86 L3349.54 1902.34 L3328.26 1903.95 L3307.09 1905.56 L3285.81 1907.29 L3264.53 1909.03 L3243.36 1910.76 L3222.08 1912.62 L3200.79 1914.60 L3179.51 1916.70 L3158.35 1918.80 L3137.06 1921.03 L3115.78 1923.26 L3094.62 1925.73 L3073.33 1928.21 L3052.05 1930.81 L3030.89 1933.53 L3009.60 1936.38 L2988.32 1939.47 L2967.15 1942.56 L2945.87 1945.78 L2924.58 1949.12 L2903.30 1952.71 L2882.14 1956.42 L2860.85 1960.26 L2839.57 1964.35 L2818.41 1968.55 L2797.12 1972.88 L2775.84 1977.46 L2754.68 1982.17 L2733.39 1987.12 L2712.11 1992.31 L2690.94 1997.63 L2669.66 2003.08 L2648.37 2008.90 L2627.21 2014.84 L2605.93 2021.02 L2584.64 2027.46 L2563.36 2034.02 L2542.20 2040.83 L2520.91 2047.88 L2499.63 2055.18 L2478.47 2062.73 L2457.18 2070.40 L2435.89 2078.45 L2414.73 2086.61 L2393.45 2095.28 L2372.16 2104.19 L2351.00 2113.47 L2329.72 2123.12 L2308.43 2133.27 L2287.15 2143.79 L2265.99 2154.68 L2244.70 2165.94 L2223.42 2177.70 L2202.26 2189.82 L2180.97 2202.20 L2159.68 2214.95 L2138.52 2227.94 L2117.24 2241.06 L2095.95 2254.30 L2074.79 2267.67 L2053.51 2280.78 L2032.22 2293.78 L2010.94 2306.40 L1989.78 2318.40 L1968.49 2330.04 L1947.21 2340.93 L1926.05 2351.20 L1904.76 2360.61 L1883.47 2369.27 L1862.31 2377.19 L1841.03 2384.37 L1819.74 2390.80 L1798.58 2396.37 L1777.30 2401.32 L1756.01 2405.65 L1734.85 2409.36 L1713.57 2412.46 L1692.28 2415.18 L1671.00 2417.41 L1649.84 2419.14 L1628.55 2420.63 L1607.27 2421.86 L1586.10 2422.85 L1564.82 2423.60 L1543.53 2424.21 L1522.37 2424.59 L1501.09 2424.96 L1479.80 2425.20 L1458.64 2425.45 L1437.36 2425.58 L1416.07 2425.58 L1394.79 2425.70 L1373.63 2425.70 L1352.34 2425.82 L1331.06 2425.82 L1309.89 2425.82 L1288.61 2425.82 L1267.32 2425.82 L1246.16 2425.82 L1224.88 2425.82 L1203.59 2425.82 L1182.43 2425.82 L1161.15 2425.82 L1139.86 2425.82 L1118.58 2425.82 L1097.41 2425.82 L1076.13 2425.82 L1054.85 2425.82 L1033.68 2425.82 L1012.40 2425.82 L991.11 2425.82 L969.95 2425.82 L948.67 2425.82 L948.67 2425.82 Z" stroke-linejoin="round"/>
	</defs>
	<defs>
		<clipPath id="clipPath_AkiCaNat">
			<use xlink:href="#path_xdTzGXCP"/>
		</clipPath>
	</defs>
	<use xlink:href="#path_xdTzGXCP" style="stroke:none;fill:#FF3333;fill-opacity:0.25"/>
	<use xlink:href="#path_xdTzGXCP" style="fill:none;stroke:#FF0000;stroke-opacity:0.25;stroke-width:17.28" clip-path="url(#clipPath_AkiCaNat)"/>
	<defs>
		<path id="path_ULwWTKtb" d="M927.38 2425.82 L927.38 2425.82 L948.67 2425.82 L969.95 2425.82 L991.11 2425.82 L1012.40 2425.82 L1033.68 2425.82 L1054.85 2425.82 L1076.13 2425.82 L1097.41 2425.82 L1118.58 2425.82 L1139.86 2425.82 L1161.15 2425.82 L1182.43 2425.82 L1203.59 2425.82 L1224.88 2425.82 L1246.16 2425.82 L1267.32 2425.82 L1288.61 2425.82 L1309.89 2425.82 L1331.06 2425.82 L1352.34 2425.82 L1373.63 2425.70 L1394.79 2425.70 L1416.07 2425.58 L1437.36 2425.45 L1458.64 2425.33 L1479.80 2425.08 L1501.09 2424.71 L1522.37 2424.21 L1543.53 2423.60 L1564.82 2422.73 L1586.10 2421.74 L1607.27 2420.25 L1628.55 2418.52 L1649.84 2416.29 L1671.00 2413.57 L1692.28 2410.23 L1713.57 2406.27 L1734.85 2401.44 L1756.01 2395.75 L1777.30 2389.07 L1798.58 2381.40 L1819.74 2372.61 L1841.03 2362.59 L1862.31 2351.45 L1883.47 2338.95 L1904.76 2325.34 L1926.05 2310.48 L1947.21 2294.40 L1968.49 2277.32 L1989.78 2259.13 L2010.94 2240.19 L2032.22 2220.39 L2053.51 2200.10 L2074.79 2179.55 L2095.95 2158.64 L2117.24 2137.85 L2138.52 2117.18 L2159.68 2096.89 L2180.97 2076.96 L2202.26 2057.41 L2223.42 2038.35 L2244.70 2020.03 L2265.99 2002.21 L2287.15 1985.01 L2308.43 1968.55 L2329.72 1952.71 L2351.00 1937.49 L2372.16 1922.76 L2393.45 1908.78 L2414.73 1895.29 L2435.89 1882.30 L2457.18 1869.67 L2478.47 1857.55 L2499.63 1845.79 L2520.91 1834.28 L2542.20 1823.27 L2563.36 1812.50 L2584.64 1802.10 L2605.93 1792.08 L2627.21 1782.30 L2648.37 1773.02 L2669.66 1763.99 L2690.94 1755.32 L2712.11 1746.91 L2733.39 1738.87 L2754.68 1731.07 L2775.84 1723.64 L2797.12 1716.47 L2818.41 1709.66 L2839.57 1703.10 L2860.85 1696.79 L2882.14 1690.73 L2903.30 1684.91 L2924.58 1679.34 L2945.87 1674.02 L2967.15 1668.82 L2988.32 1663.99 L3009.60 1659.29 L3030.89 1654.84 L3052.05 1650.51 L3073.33 1646.42 L3094.62 1642.46 L3115.78 1638.62 L3137.06 1635.04 L3158.35 1631.57 L3179.51 1628.23 L3200.79 1625.01 L3222.08 1621.92 L3243.36 1618.95 L3264.53 1616.10 L3285.81 1613.38 L3307.09 1610.78 L3328.26 1608.18 L3349.54 1605.71 L3370.83 1603.36 L3391.99 1601.00 L3413.27 1598.78 L3434.56 1596.55 L3455.72 1594.44 L3477.00 1592.34 L3498.29 1590.36 L3519.57 1588.26 L3540.74 1586.40 L3562.02 1584.42 L3583.30 1582.44 L3604.47 1580.58 L3625.75 1578.73 L3647.04 1576.87 L3647.04 393.66 L3625.75 398.12 L3604.47 402.57 L3583.30 407.03 L3562.02 411.61 L3540.74 416.18 L3519.57 420.89 L3498.29 425.71 L3477.00 430.54 L3455.72 435.49 L3434.56 440.69 L3413.27 445.89 L3391.99 451.21 L3370.83 456.78 L3349.54 462.47 L3328.26 468.28 L3307.09 474.47 L3285.81 480.78 L3264.53 487.22 L3243.36 494.03 L3222.08 501.08 L3200.79 508.38 L3179.51 516.05 L3158.35 523.97 L3137.06 532.27 L3115.78 540.93 L3094.62 549.96 L3073.33 559.37 L3052.05 569.14 L3030.89 579.42 L3009.60 590.18 L2988.32 601.32 L2967.15 612.95 L2945.87 625.20 L2924.58 637.95 L2903.30 651.19 L2882.14 665.05 L2860.85 679.53 L2839.57 694.63 L2818.41 710.35 L2797.12 726.68 L2775.84 743.76 L2754.68 761.58 L2733.39 780.02 L2712.11 799.20 L2690.94 819.25 L2669.66 840.04 L2648.37 861.57 L2627.21 883.85 L2605.93 907.12 L2584.64 931.00 L2563.36 955.87 L2542.20 981.49 L2520.91 1007.98 L2499.63 1035.32 L2478.47 1063.54 L2457.18 1092.50 L2435.89 1122.45 L2414.73 1153.63 L2393.45 1185.81 L2372.16 1219.47 L2351.00 1254.37 L2329.72 1290.75 L2308.43 1328.75 L2287.15 1368.22 L2265.99 1409.19 L2244.70 1451.76 L2223.42 1495.81 L2202.26 1541.35 L2180.97 1588.01 L2159.68 1635.78 L2138.52 1684.54 L2117.24 1734.04 L2095.95 1783.91 L2074.79 1833.78 L2053.51 1883.29 L2032.22 1932.05 L2010.94 1979.32 L1989.78 2024.86 L1968.49 2068.30 L1947.21 2109.38 L1926.05 2147.87 L1904.76 2183.51 L1883.47 2216.31 L1862.31 2246.01 L1841.03 2272.86 L1819.74 2296.87 L1798.58 2318.03 L1777.30 2336.47 L1756.01 2352.44 L1734.85 2366.17 L1713.57 2377.81 L1692.28 2387.58 L1671.00 2395.63 L1649.84 2402.31 L1628.55 2407.63 L1607.27 2411.96 L1586.10 2415.43 L1564.82 2418.03 L1543.53 2420.13 L1522.37 2421.62 L1501.09 2422.85 L1479.80 2423.72 L1458.64 2424.34 L1437.36 2424.83 L1416.07 2425.20 L1394.79 2425.33 L1373.63 2425.58 L1352.34 2425.70 L1331.06 2425.70 L1309.89 2425.82 L1288.61 2425.82 L1267.32 2425.82 L1246.16 2425.82 L1224.88 2425.82 L1203.59 2425.82 L1182.43 2425.82 L1161.15 2425.82 L1139.86 2425.82 L1118.58 2425.82 L1097.41 2425.82 L1076.13 2425.82 L1054.85 2425.82 L1033.68 2425.82 L1012.40 2425.82 L991.11 2425.82 L969.95 2425.82 L948.67 2425.82 L927.38 2425.82 L927.38 2425.82 Z" stroke-linejoin="round"/>
	</defs>
	<defs>
		<clipPath id="clipPath_gEwCUBoy">
			<use xlink:href="#path_ULwWTKtb"/>
		</clipPath>
	</defs>
	<use xlink:href="#path_ULwWTKtb" style="stroke:none;fill:#3333FF;fill-opacity:0.25"/>
	<use xlink:href="#path_ULwWTKtb" style="fill:none;stroke:#0000FF;stroke-opacity:0.25;stroke-width:17.28" clip-path="url(#clipPath_gEwCUBoy)"/>
	<path d=" M587.44 2425.95 L608.60 2425.95 L629.89 2425.95 L651.17 2425.95 L672.33 2425.95 L693.62 2425.95 L714.90 2425.95 L736.19 2425.95 L757.35 2425.95 L778.63 2425.95 L799.92 2425.95 L821.08 2425.95 L842.37 2425.95 L863.65 2425.95 L884.81 2425.95 L906.10 2425.95 L927.38 2425.95 L948.54 2425.95 L969.83 2425.95 L991.11 2425.95 L1012.40 2425.95 L1033.56 2425.95 L1054.85 2425.95 L1076.13 2425.95 L1097.29 2425.95 L1118.58 2425.95 L1139.86 2425.95 L1161.02 2425.95 L1182.31 2425.95 L1203.59 2425.95 L1224.75 2425.95 L1246.04 2425.95 L1267.32 2425.95 L1288.48 2425.95 L1309.77 2425.95 L1331.06 2425.82 L1352.34 2425.82 L1373.50 2425.82 L1394.79 2425.82 L1416.07 2425.70 L1437.23 2425.70 L1458.52 2425.58 L1479.80 2425.45 L1500.96 2425.20 L1522.25 2424.83 L1543.53 2424.46 L1564.69 2423.97 L1585.98 2423.35 L1607.27 2422.48 L1628.55 2421.37 L1649.71 2420.01 L1671.00 2418.40 L1692.28 2416.29 L1713.44 2413.82 L1734.73 2410.97 L1756.01 2407.51 L1777.17 2403.42 L1798.46 2398.72 L1819.74 2393.40 L1840.90 2387.34 L1862.19 2380.53 L1883.47 2372.98 L1904.76 2364.69 L1925.92 2355.65 L1947.21 2345.88 L1968.49 2335.48 L1989.65 2324.47 L2010.94 2312.96 L2032.22 2300.96 L2053.38 2288.58 L2074.67 2276.08 L2095.95 2263.33 L2117.11 2250.71 L2138.40 2238.21 L2159.68 2225.84 L2180.97 2213.71 L2202.13 2201.83 L2223.42 2190.32 L2244.70 2179.06 L2265.86 2168.29 L2287.15 2157.77 L2308.43 2147.75 L2329.59 2138.10 L2350.88 2128.81 L2372.16 2120.03 L2393.32 2111.49 L2414.61 2103.20 L2435.89 2095.28 L2457.06 2087.73 L2478.34 2080.30 L2499.63 2073.12 L2520.91 2066.19 L2542.07 2059.39 L2563.36 2052.95 L2584.64 2046.52 L2605.80 2040.45 L2627.09 2034.51 L2648.37 2028.82 L2669.53 2023.38 L2690.82 2018.05 L2712.11 2012.98 L2733.27 2008.15 L2754.55 2003.45 L2775.84 1998.87 L2797.12 1994.54 L2818.28 1990.33 L2839.57 1986.37 L2860.85 1982.54 L2882.01 1978.82 L2903.30 1975.24 L2924.58 1971.89 L2945.74 1968.68 L2967.03 1965.46 L2988.32 1962.49 L3009.48 1959.64 L3030.76 1956.92 L3052.05 1954.32 L3073.33 1951.85 L3094.49 1949.49 L3115.78 1947.14 L3137.06 1944.92 L3158.22 1942.81 L3179.51 1940.83 L3200.79 1938.85 L3221.95 1937.00 L3243.24 1935.14 L3264.53 1933.41 L3285.69 1931.80 L3306.97 1930.19 L3328.26 1928.58 L3349.42 1927.10 L3370.70 1925.61 L3391.99 1924.25 L3413.27 1922.89 L3434.43 1921.53 L3455.72 1920.29 L3477.00 1918.93 L3498.16 1917.69 L3519.45 1916.58 L3540.74 1915.34 L3561.90 1914.10 L3583.18 1912.99 L3604.47 1911.87 L3625.63 1910.64 L3646.91 1909.52" stroke-linejoin="round" style="fill:none;stroke:#FF0000;stroke-width:8.64"/>
	<path d=" M587.44 2425.95 L608.60 2425.95 L629.89 2425.95 L651.17 2425.95 L672.33 2425.95 L693.62 2425.95 L714.90 2425.95 L736.19 2425.95 L757.35 2425.95 L778.63 2425.95 L799.92 2425.95 L821.08 2425.95 L842.37 2425.95 L863.65 2425.95 L884.81 2425.95 L906.10 2425.95 L927.38 2425.95 L948.54 2425.95 L969.83 2425.95 L991.11 2425.95 L1012.40 2425.95 L1033.56 2425.95 L1054.85 2425.95 L1076.13 2425.95 L1097.29 2425.95 L1118.58 2425.95 L1139.86 2425.95 L1161.02 2425.95 L1182.31 2425.95 L1203.59 2425.95 L1224.75 2425.95 L1246.04 2425.95 L1267.32 2425.95 L1288.48 2425.82 L1309.77 2425.82 L1331.06 2425.82 L1352.34 2425.82 L1373.50 2425.70 L1394.79 2425.58 L1416.07 2425.45 L1437.23 2425.33 L1458.52 2424.96 L1479.80 2424.59 L1500.96 2424.09 L1522.25 2423.35 L1543.53 2422.36 L1564.69 2421.00 L1585.98 2419.26 L1607.27 2417.16 L1628.55 2414.44 L1649.71 2410.97 L1671.00 2406.64 L1692.28 2401.44 L1713.44 2395.26 L1734.73 2387.71 L1756.01 2378.92 L1777.17 2368.53 L1798.46 2356.64 L1819.74 2343.03 L1840.90 2327.56 L1862.19 2310.24 L1883.47 2290.93 L1904.76 2269.77 L1925.92 2246.75 L1947.21 2222.00 L1968.49 2195.52 L1989.65 2167.43 L2010.94 2137.97 L2032.22 2107.40 L2053.38 2075.97 L2074.67 2044.04 L2095.95 2011.74 L2117.11 1979.57 L2138.40 1947.64 L2159.68 1916.08 L2180.97 1885.27 L2202.13 1855.07 L2223.42 1825.62 L2244.70 1797.15 L2265.86 1769.68 L2287.15 1743.07 L2308.43 1717.58 L2329.59 1693.08 L2350.88 1669.44 L2372.16 1646.92 L2393.32 1625.14 L2414.61 1604.35 L2435.89 1584.17 L2457.06 1564.74 L2478.34 1546.06 L2499.63 1527.74 L2520.91 1510.04 L2542.07 1492.97 L2563.36 1476.38 L2584.64 1460.30 L2605.80 1444.83 L2627.09 1429.85 L2648.37 1415.37 L2669.53 1401.39 L2690.82 1388.02 L2712.11 1375.03 L2733.27 1362.53 L2754.55 1350.65 L2775.84 1339.14 L2797.12 1328.00 L2818.28 1317.48 L2839.57 1307.34 L2860.85 1297.56 L2882.01 1288.15 L2903.30 1279.12 L2924.58 1270.58 L2945.74 1262.29 L2967.03 1254.49 L2988.32 1246.94 L3009.48 1239.64 L3030.76 1232.71 L3052.05 1226.03 L3073.33 1219.72 L3094.49 1213.65 L3115.78 1207.84 L3137.06 1202.15 L3158.22 1196.82 L3179.51 1191.75 L3200.79 1186.80 L3221.95 1181.97 L3243.24 1177.39 L3264.53 1173.06 L3285.69 1168.86 L3306.97 1164.77 L3328.26 1160.81 L3349.42 1156.97 L3370.70 1153.26 L3391.99 1149.67 L3413.27 1146.21 L3434.43 1142.87 L3455.72 1139.53 L3477.00 1136.31 L3498.16 1133.21 L3519.45 1130.12 L3540.74 1127.03 L3561.90 1124.06 L3583.18 1121.09 L3604.47 1118.12 L3625.63 1115.27 L3646.91 1112.42" stroke-linejoin="round" style="fill:none;stroke:#0000FF;stroke-width:8.64"/>
	<line x1="524.08" y1="2489.19" x2="524.08" y2="100.86" style="stroke:#000000;stroke-width:5.76"/>
	<line x1="524.08" y1="2425.82" x2="484.11" y2="2425.82" style="stroke:#000000;stroke-width:5.76"/>
	<text x="464.06" y="2460.85" style="font-family:'Helvetica';font-size:99.99px;fill:#000000" text-anchor="end">0.00</text>
	<line x1="524.08" y1="1671.91" x2="484.11" y2="1671.91" style="stroke:#000000;stroke-width:5.76"/>
	<text x="464.06" y="1706.94" style="font-family:'Helvetica';font-size:99.99px;fill:#000000" text-anchor="end">0.05</text>
	<line x1="524.08" y1="918.01" x2="484.11" y2="918.01" style="stroke:#000000;stroke-width:5.76"/>
	<text x="464.06" y="953.03" style="font-family:'Helvetica';font-size:99.99px;fill:#000000" text-anchor="end">0.10</text>
	<line x1="524.08" y1="164.22" x2="484.11" y2="164.22" style="stroke:#000000;stroke-width:5.76"/>
	<text x="464.06" y="199.25" style="font-family:'Helvetica';font-size:99.99px;fill:#000000" text-anchor="end">0.15</text>
	<text x="190.71" y="1294.96" style="font-family:'Helvetica';font-size:99.99px;fill:#000000" transform="rotate(-90 190.71,1294.96)" text-anchor="middle">Cumulative mortality (%)</text>
	<line x1="524.08" y1="2489.19" x2="3859.02" y2="2489.19" style="stroke:#000000;stroke-width:5.76"/>
	<line x1="587.44" y1="2489.19" x2="587.44" y2="2529.16" style="stroke:#000000;stroke-width:5.76"/>
	<text x="587.44" y="2619.14" style="font-family:'Helvetica';font-size:99.99px;fill:#000000" text-anchor="middle">1 February</text>
	<line x1="1203.59" y1="2489.19" x2="1203.59" y2="2529.16" style="stroke:#000000;stroke-width:5.76"/>
	<text x="1203.59" y="2619.14" style="font-family:'Helvetica';font-size:99.99px;fill:#000000" text-anchor="middle">1 March</text>
	<line x1="1862.31" y1="2489.19" x2="1862.31" y2="2529.16" style="stroke:#000000;stroke-width:5.76"/>
	<text x="1862.31" y="2619.14" style="font-family:'Helvetica';font-size:99.99px;fill:#000000" text-anchor="middle">1 April</text>
	<line x1="2499.63" y1="2489.19" x2="2499.63" y2="2529.16" style="stroke:#000000;stroke-width:5.76"/>
	<text x="2499.63" y="2619.14" style="font-family:'Helvetica';font-size:99.99px;fill:#000000" text-anchor="middle">1 May</text>
	<line x1="3158.35" y1="2489.19" x2="3158.35" y2="2529.16" style="stroke:#000000;stroke-width:5.76"/>
	<text x="3158.35" y="2619.14" style="font-family:'Helvetica';font-size:99.99px;fill:#000000" text-anchor="middle">1 June</text>
	<line x1="3795.66" y1="2489.19" x2="3795.66" y2="2529.16" style="stroke:#000000;stroke-width:5.76"/>
	<text x="3795.66" y="2619.14" style="font-family:'Helvetica';font-size:99.99px;fill:#000000" text-anchor="middle">1 July</text>
	<text x="2191.61" y="2729.16" style="font-family:'Helvetica';font-size:99.99px;fill:#000000" text-anchor="middle">Date in 2020</text>
	<rect x="558.61" y="135.39" width="856.23" height="326.34" style="fill:#FFFFFF"/>
	<rect x="561.49" y="138.27" width="850.47" height="320.58" style="fill:none;stroke:#000000;stroke-width:5.76"/>
	<rect x="601.92" y="178.58" width="374.34" height="99.99" style="fill:#FF3333;fill-opacity:0.25"/>
	<rect x="606.24" y="182.90" width="365.70" height="91.35" style="fill:none;stroke:#FF0000;stroke-opacity:0.25;stroke-width:8.64"/>
	<rect x="601.92" y="318.54" width="374.34" height="99.99" style="fill:#3333FF;fill-opacity:0.25"/>
	<rect x="606.24" y="322.86" width="365.70" height="91.35" style="fill:none;stroke:#0000FF;stroke-opacity:0.25;stroke-width:8.64"/>
	<text x="1036.28" y="263.60" style="font-family:'Helvetica';font-size:99.99px;fill:#000000">No HIV</text>
	<text x="1036.28" y="403.57" style="font-family:'Helvetica';font-size:99.99px;fill:#000000">HIV</text>
</svg>
