<?xml version="1.0" encoding="UTF-8" standalone="no"?>
<!-- This is a Stata 16.1 generated SVG file (http://www.stata.com) -->

<svg version="1.1" width="5.50in" height="4.00in" viewBox="0 0 3960 2880" xmlns="http://www.w3.org/2000/svg" xmlns:xlink="http://www.w3.org/1999/xlink">
	<desc>Stata Graph - Graph</desc>
	<rect x="0" y="0" width="3960" height="2880" style="fill:#EAF2F3;stroke:none"/>
	<rect x="0.00" y="0.00" width="3959.88" height="2880.00" style="fill:#EAF2F3"/>
	<rect x="2.88" y="2.88" width="3954.12" height="2874.24" style="fill:none;stroke:#EAF2F3;stroke-width:5.76"/>
	<rect x="524.08" y="100.86" width="3334.94" height="2388.33" style="fill:#FFFFFF"/>
	<rect x="526.96" y="103.74" width="3329.18" height="2382.57" style="fill:none;stroke:#FFFFFF;stroke-width:5.76"/>
	<line x1="524.08" y1="2425.82" x2="3859.02" y2="2425.82" style="stroke:#EAF2F3;stroke-width:8.64"/>
	<line x1="524.08" y1="1671.91" x2="3859.02" y2="1671.91" style="stroke:#EAF2F3;stroke-width:8.64"/>
	<line x1="524.08" y1="918.01" x2="3859.02" y2="918.01" style="stroke:#EAF2F3;stroke-width:8.64"/>
	<line x1="524.08" y1="164.22" x2="3859.02" y2="164.22" style="stroke:#EAF2F3;stroke-width:8.64"/>
	<defs>
		<path id="path_fJijelOT" d="M906.22 2425.82 L906.22 2425.82 L927.38 2425.82 L948.67 2425.82 L969.95 2425.82 L991.11 2425.82 L1012.40 2425.82 L1033.68 2425.82 L1054.85 2425.82 L1076.13 2425.82 L1097.41 2425.82 L1118.58 2425.82 L1139.86 2425.82 L1161.15 2425.82 L1182.43 2425.82 L1203.59 2425.82 L1224.88 2425.82 L1246.16 2425.82 L1267.32 2425.82 L1288.61 2425.82 L1309.89 2425.82 L1331.06 2425.82 L1352.34 2425.82 L1373.63 2425.82 L1394.79 2425.70 L1416.07 2425.70 L1437.36 2425.70 L1458.64 2425.58 L1479.80 2425.45 L1501.09 2425.20 L1522.37 2424.96 L1543.53 2424.59 L1564.82 2424.21 L1586.10 2423.60 L1607.27 2422.73 L1628.55 2421.74 L1649.84 2420.50 L1671.00 2418.89 L1692.28 2417.04 L1713.57 2414.69 L1734.85 2411.84 L1756.01 2408.50 L1777.30 2404.66 L1798.58 2400.08 L1819.74 2394.88 L1841.03 2388.94 L1862.31 2382.26 L1883.47 2374.84 L1904.76 2366.79 L1926.05 2357.88 L1947.21 2348.35 L1968.49 2338.08 L1989.78 2327.32 L2010.94 2315.93 L2032.22 2304.17 L2053.51 2292.17 L2074.79 2279.79 L2095.95 2267.42 L2117.24 2255.04 L2138.52 2242.67 L2159.68 2230.54 L2180.97 2218.66 L2202.26 2207.03 L2223.42 2195.64 L2244.70 2184.63 L2265.99 2174.11 L2287.15 2163.84 L2308.43 2153.94 L2329.72 2144.41 L2351.00 2135.25 L2372.16 2126.59 L2393.45 2118.17 L2414.73 2110.00 L2435.89 2102.33 L2457.18 2094.78 L2478.47 2087.48 L2499.63 2080.43 L2520.91 2073.62 L2542.20 2066.94 L2563.36 2060.50 L2584.64 2054.31 L2605.93 2048.37 L2627.21 2042.56 L2648.37 2036.99 L2669.66 2031.54 L2690.94 2026.35 L2712.11 2021.40 L2733.39 2016.57 L2754.68 2011.87 L2775.84 2007.41 L2797.12 2003.20 L2818.41 1999.12 L2839.57 1995.16 L2860.85 1991.32 L2882.14 1987.73 L2903.30 1984.27 L2924.58 1980.93 L2945.87 1977.71 L2967.15 1974.74 L2988.32 1971.77 L3009.60 1968.92 L3030.89 1966.33 L3052.05 1963.73 L3073.33 1961.25 L3094.62 1958.90 L3115.78 1956.67 L3137.06 1954.44 L3158.35 1952.34 L3179.51 1950.36 L3200.79 1948.50 L3222.08 1946.65 L3243.36 1944.92 L3264.53 1943.18 L3285.81 1941.57 L3307.09 1939.97 L3328.26 1938.36 L3349.54 1937.00 L3370.83 1935.51 L3391.99 1934.15 L3413.27 1932.79 L3434.56 1931.43 L3455.72 1930.19 L3477.00 1928.95 L3498.29 1927.71 L3519.57 1926.48 L3540.74 1925.36 L3562.02 1924.13 L3583.30 1923.01 L3604.47 1921.90 L3625.75 1920.78 L3647.04 1919.67 L3647.04 1869.30 L3625.75 1870.54 L3604.47 1871.65 L3583.30 1872.89 L3562.02 1874.25 L3540.74 1875.49 L3519.57 1876.73 L3498.29 1878.09 L3477.00 1879.45 L3455.72 1880.81 L3434.56 1882.17 L3413.27 1883.66 L3391.99 1885.02 L3370.83 1886.63 L3349.54 1888.11 L3328.26 1889.72 L3307.09 1891.45 L3285.81 1893.19 L3264.53 1894.92 L3243.36 1896.78 L3222.08 1898.76 L3200.79 1900.74 L3179.51 1902.84 L3158.35 1905.07 L3137.06 1907.29 L3115.78 1909.65 L3094.62 1912.12 L3073.33 1914.72 L3052.05 1917.44 L3030.89 1920.17 L3009.60 1923.14 L2988.32 1926.23 L2967.15 1929.45 L2945.87 1932.79 L2924.58 1936.25 L2903.30 1939.84 L2882.14 1943.68 L2860.85 1947.64 L2839.57 1951.72 L2818.41 1956.05 L2797.12 1960.63 L2775.84 1965.21 L2754.68 1970.16 L2733.39 1975.24 L2712.11 1980.43 L2690.94 1986.00 L2669.66 1991.69 L2648.37 1997.51 L2627.21 2003.70 L2605.93 2010.01 L2584.64 2016.57 L2563.36 2023.38 L2542.20 2030.43 L2520.91 2037.61 L2499.63 2045.16 L2478.47 2052.83 L2457.18 2060.75 L2435.89 2068.92 L2414.73 2077.46 L2393.45 2086.24 L2372.16 2095.40 L2351.00 2104.93 L2329.72 2114.95 L2308.43 2125.23 L2287.15 2136.12 L2265.99 2147.25 L2244.70 2158.89 L2223.42 2170.89 L2202.26 2183.39 L2180.97 2196.14 L2159.68 2209.25 L2138.52 2222.50 L2117.24 2236.11 L2095.95 2249.72 L2074.79 2263.33 L2053.51 2276.82 L2032.22 2290.19 L2010.94 2303.06 L1989.78 2315.56 L1968.49 2327.44 L1947.21 2338.58 L1926.05 2349.10 L1904.76 2358.87 L1883.47 2367.78 L1862.31 2375.95 L1841.03 2383.25 L1819.74 2389.81 L1798.58 2395.63 L1777.30 2400.70 L1756.01 2405.16 L1734.85 2408.87 L1713.57 2412.09 L1692.28 2414.81 L1671.00 2417.16 L1649.84 2419.02 L1628.55 2420.50 L1607.27 2421.74 L1586.10 2422.73 L1564.82 2423.47 L1543.53 2424.09 L1522.37 2424.59 L1501.09 2424.96 L1479.80 2425.20 L1458.64 2425.33 L1437.36 2425.58 L1416.07 2425.58 L1394.79 2425.70 L1373.63 2425.70 L1352.34 2425.82 L1331.06 2425.82 L1309.89 2425.82 L1288.61 2425.82 L1267.32 2425.82 L1246.16 2425.82 L1224.88 2425.82 L1203.59 2425.82 L1182.43 2425.82 L1161.15 2425.82 L1139.86 2425.82 L1118.58 2425.82 L1097.41 2425.82 L1076.13 2425.82 L1054.85 2425.82 L1033.68 2425.82 L1012.40 2425.82 L991.11 2425.82 L969.95 2425.82 L948.67 2425.82 L927.38 2425.82 L906.22 2425.82 L906.22 2425.82 Z" stroke-linejoin="round"/>
	</defs>
	<defs>
		<clipPath id="clipPath_iDsYcanw">
			<use xlink:href="#path_fJijelOT"/>
		</clipPath>
	</defs>
	<use xlink:href="#path_fJijelOT" style="stroke:none;fill:#FF3333;fill-opacity:0.25"/>
	<use xlink:href="#path_fJijelOT" style="fill:none;stroke:#FF0000;stroke-opacity:0.25;stroke-width:17.28" clip-path="url(#clipPath_iDsYcanw)"/>
	<defs>
		<path id="path_lPhAvVwV" d="M906.22 2425.82 L906.22 2425.82 L927.38 2425.82 L948.67 2425.82 L969.95 2425.82 L991.11 2425.82 L1012.40 2425.82 L1033.68 2425.82 L1054.85 2425.82 L1076.13 2425.82 L1097.41 2425.82 L1118.58 2425.82 L1139.86 2425.82 L1161.15 2425.82 L1182.43 2425.82 L1203.59 2425.82 L1224.88 2425.82 L1246.16 2425.82 L1267.32 2425.82 L1288.61 2425.82 L1309.89 2425.82 L1331.06 2425.82 L1352.34 2425.82 L1373.63 2425.70 L1394.79 2425.70 L1416.07 2425.58 L1437.36 2425.45 L1458.64 2425.33 L1479.80 2425.08 L1501.09 2424.71 L1522.37 2424.21 L1543.53 2423.60 L1564.82 2422.73 L1586.10 2421.74 L1607.27 2420.25 L1628.55 2418.52 L1649.84 2416.29 L1671.00 2413.57 L1692.28 2410.23 L1713.57 2406.27 L1734.85 2401.44 L1756.01 2395.75 L1777.30 2389.07 L1798.58 2381.40 L1819.74 2372.61 L1841.03 2362.59 L1862.31 2351.45 L1883.47 2339.07 L1904.76 2325.34 L1926.05 2310.48 L1947.21 2294.52 L1968.49 2277.32 L1989.78 2259.25 L2010.94 2240.32 L2032.22 2220.52 L2053.51 2200.22 L2074.79 2179.68 L2095.95 2158.76 L2117.24 2137.97 L2138.52 2117.43 L2159.68 2097.01 L2180.97 2077.08 L2202.26 2057.53 L2223.42 2038.60 L2244.70 2020.16 L2265.99 2002.46 L2287.15 1985.26 L2308.43 1968.80 L2329.72 1952.96 L2351.00 1937.74 L2372.16 1923.01 L2393.45 1909.03 L2414.73 1895.54 L2435.89 1882.54 L2457.18 1869.92 L2478.47 1857.79 L2499.63 1846.04 L2520.91 1834.65 L2542.20 1823.51 L2563.36 1812.75 L2584.64 1802.35 L2605.93 1792.33 L2627.21 1782.67 L2648.37 1773.27 L2669.66 1764.24 L2690.94 1755.57 L2712.11 1747.28 L2733.39 1739.11 L2754.68 1731.44 L2775.84 1724.02 L2797.12 1716.84 L2818.41 1710.03 L2839.57 1703.35 L2860.85 1697.04 L2882.14 1690.97 L2903.30 1685.16 L2924.58 1679.59 L2945.87 1674.27 L2967.15 1669.19 L2988.32 1664.37 L3009.60 1659.66 L3030.89 1655.08 L3052.05 1650.88 L3073.33 1646.67 L3094.62 1642.83 L3115.78 1639.00 L3137.06 1635.41 L3158.35 1631.94 L3179.51 1628.60 L3200.79 1625.38 L3222.08 1622.29 L3243.36 1619.32 L3264.53 1616.47 L3285.81 1613.75 L3307.09 1611.15 L3328.26 1608.55 L3349.54 1606.08 L3370.83 1603.73 L3391.99 1601.38 L3413.27 1599.15 L3434.56 1596.92 L3455.72 1594.82 L3477.00 1592.71 L3498.29 1590.73 L3519.57 1588.63 L3540.74 1586.65 L3562.02 1584.79 L3583.30 1582.81 L3604.47 1580.96 L3625.75 1579.10 L3647.04 1577.24 L3647.04 393.91 L3625.75 398.24 L3604.47 402.70 L3583.30 407.27 L3562.02 411.85 L3540.74 416.43 L3519.57 421.13 L3498.29 425.84 L3477.00 430.79 L3455.72 435.74 L3434.56 440.81 L3413.27 446.01 L3391.99 451.45 L3370.83 456.90 L3349.54 462.72 L3328.26 468.53 L3307.09 474.60 L3285.81 480.91 L3264.53 487.47 L3243.36 494.27 L3222.08 501.33 L3200.79 508.63 L3179.51 516.30 L3158.35 524.22 L3137.06 532.51 L3115.78 541.18 L3094.62 550.21 L3073.33 559.61 L3052.05 569.39 L3030.89 579.66 L3009.60 590.43 L2988.32 601.57 L2967.15 613.20 L2945.87 625.45 L2924.58 638.20 L2903.30 651.44 L2882.14 665.30 L2860.85 679.78 L2839.57 694.88 L2818.41 710.59 L2797.12 726.93 L2775.84 744.01 L2754.68 761.83 L2733.39 780.27 L2712.11 799.57 L2690.94 819.50 L2669.66 840.29 L2648.37 861.82 L2627.21 884.22 L2605.93 907.36 L2584.64 931.37 L2563.36 956.12 L2542.20 981.86 L2520.91 1008.35 L2499.63 1035.70 L2478.47 1063.79 L2457.18 1092.87 L2435.89 1122.82 L2414.73 1153.88 L2393.45 1186.18 L2372.16 1219.72 L2351.00 1254.74 L2329.72 1291.12 L2308.43 1329.12 L2287.15 1368.59 L2265.99 1409.56 L2244.70 1452.13 L2223.42 1496.18 L2202.26 1541.60 L2180.97 1588.26 L2159.68 1636.15 L2138.52 1684.91 L2117.24 1734.29 L2095.95 1784.16 L2074.79 1834.03 L2053.51 1883.53 L2032.22 1932.17 L2010.94 1979.44 L1989.78 2024.98 L1968.49 2068.55 L1947.21 2109.51 L1926.05 2148.00 L1904.76 2183.64 L1883.47 2216.31 L1862.31 2246.13 L1841.03 2272.99 L1819.74 2296.87 L1798.58 2318.03 L1777.30 2336.47 L1756.01 2352.56 L1734.85 2366.17 L1713.57 2377.81 L1692.28 2387.58 L1671.00 2395.63 L1649.84 2402.31 L1628.55 2407.63 L1607.27 2411.96 L1586.10 2415.43 L1564.82 2418.03 L1543.53 2420.13 L1522.37 2421.62 L1501.09 2422.85 L1479.80 2423.72 L1458.64 2424.34 L1437.36 2424.83 L1416.07 2425.20 L1394.79 2425.33 L1373.63 2425.58 L1352.34 2425.70 L1331.06 2425.70 L1309.89 2425.82 L1288.61 2425.82 L1267.32 2425.82 L1246.16 2425.82 L1224.88 2425.82 L1203.59 2425.82 L1182.43 2425.82 L1161.15 2425.82 L1139.86 2425.82 L1118.58 2425.82 L1097.41 2425.82 L1076.13 2425.82 L1054.85 2425.82 L1033.68 2425.82 L1012.40 2425.82 L991.11 2425.82 L969.95 2425.82 L948.67 2425.82 L927.38 2425.82 L906.22 2425.82 L906.22 2425.82 Z" stroke-linejoin="round"/>
	</defs>
	<defs>
		<clipPath id="clipPath_viYWYIHO">
			<use xlink:href="#path_lPhAvVwV"/>
		</clipPath>
	</defs>
	<use xlink:href="#path_lPhAvVwV" style="stroke:none;fill:#3333FF;fill-opacity:0.25"/>
	<use xlink:href="#path_lPhAvVwV" style="fill:none;stroke:#0000FF;stroke-opacity:0.25;stroke-width:17.28" clip-path="url(#clipPath_viYWYIHO)"/>
	<path d=" M587.44 2425.95 L608.60 2425.95 L629.89 2425.95 L651.17 2425.95 L672.33 2425.95 L693.62 2425.95 L714.90 2425.95 L736.19 2425.95 L757.35 2425.95 L778.63 2425.95 L799.92 2425.95 L821.08 2425.95 L842.37 2425.95 L863.65 2425.95 L884.81 2425.95 L906.10 2425.95 L927.38 2425.95 L948.54 2425.95 L969.83 2425.95 L991.11 2425.95 L1012.40 2425.95 L1033.56 2425.95 L1054.85 2425.95 L1076.13 2425.95 L1097.29 2425.95 L1118.58 2425.95 L1139.86 2425.95 L1161.02 2425.95 L1182.31 2425.95 L1203.59 2425.95 L1224.75 2425.95 L1246.04 2425.95 L1267.32 2425.95 L1288.48 2425.95 L1309.77 2425.95 L1331.06 2425.82 L1352.34 2425.82 L1373.50 2425.82 L1394.79 2425.82 L1416.07 2425.70 L1437.23 2425.70 L1458.52 2425.58 L1479.80 2425.33 L1500.96 2425.20 L1522.25 2424.83 L1543.53 2424.46 L1564.69 2423.97 L1585.98 2423.22 L1607.27 2422.36 L1628.55 2421.24 L1649.71 2419.88 L1671.00 2418.15 L1692.28 2416.05 L1713.44 2413.57 L1734.73 2410.48 L1756.01 2407.01 L1777.17 2402.81 L1798.46 2397.98 L1819.74 2392.53 L1840.90 2386.22 L1862.19 2379.29 L1883.47 2371.50 L1904.76 2362.96 L1925.92 2353.67 L1947.21 2343.65 L1968.49 2333.01 L1989.65 2321.62 L2010.94 2309.74 L2032.22 2297.49 L2053.38 2284.74 L2074.67 2271.87 L2095.95 2258.88 L2117.11 2245.89 L2138.40 2232.89 L2159.68 2220.27 L2180.97 2207.77 L2202.13 2195.52 L2223.42 2183.64 L2244.70 2172.13 L2265.86 2161.11 L2287.15 2150.35 L2308.43 2140.08 L2329.59 2130.05 L2350.88 2120.52 L2372.16 2111.49 L2393.32 2102.70 L2414.61 2094.16 L2435.89 2086.12 L2457.06 2078.20 L2478.34 2070.65 L2499.63 2063.22 L2520.91 2056.17 L2542.07 2049.24 L2563.36 2042.43 L2584.64 2036.00 L2605.80 2029.69 L2627.09 2023.62 L2648.37 2017.81 L2669.53 2012.11 L2690.82 2006.67 L2712.11 2001.47 L2733.27 1996.40 L2754.55 1991.57 L2775.84 1986.99 L2797.12 1982.41 L2818.28 1978.21 L2839.57 1974.00 L2860.85 1970.04 L2882.01 1966.33 L2903.30 1962.61 L2924.58 1959.15 L2945.74 1955.81 L2967.03 1952.71 L2988.32 1949.62 L3009.48 1946.65 L3030.76 1943.93 L3052.05 1941.20 L3073.33 1938.60 L3094.49 1936.13 L3115.78 1933.78 L3137.06 1931.55 L3158.22 1929.32 L3179.51 1927.22 L3200.79 1925.24 L3221.95 1923.38 L3243.24 1921.53 L3264.53 1919.67 L3285.69 1917.94 L3306.97 1916.33 L3328.26 1914.72 L3349.42 1913.23 L3370.70 1911.75 L3391.99 1910.26 L3413.27 1908.78 L3434.43 1907.42 L3455.72 1906.18 L3477.00 1904.82 L3498.16 1903.58 L3519.45 1902.34 L3540.74 1901.11 L3561.90 1899.87 L3583.18 1898.63 L3604.47 1897.52 L3625.63 1896.28 L3646.91 1895.17" stroke-linejoin="round" style="fill:none;stroke:#FF0000;stroke-width:8.64"/>
	<path d=" M587.44 2425.95 L608.60 2425.95 L629.89 2425.95 L651.17 2425.95 L672.33 2425.95 L693.62 2425.95 L714.90 2425.95 L736.19 2425.95 L757.35 2425.95 L778.63 2425.95 L799.92 2425.95 L821.08 2425.95 L842.37 2425.95 L863.65 2425.95 L884.81 2425.95 L906.10 2425.95 L927.38 2425.95 L948.54 2425.95 L969.83 2425.95 L991.11 2425.95 L1012.40 2425.95 L1033.56 2425.95 L1054.85 2425.95 L1076.13 2425.95 L1097.29 2425.95 L1118.58 2425.95 L1139.86 2425.95 L1161.02 2425.95 L1182.31 2425.95 L1203.59 2425.95 L1224.75 2425.95 L1246.04 2425.95 L1267.32 2425.95 L1288.48 2425.82 L1309.77 2425.82 L1331.06 2425.82 L1352.34 2425.82 L1373.50 2425.70 L1394.79 2425.58 L1416.07 2425.45 L1437.23 2425.33 L1458.52 2424.96 L1479.80 2424.59 L1500.96 2424.09 L1522.25 2423.35 L1543.53 2422.36 L1564.69 2421.00 L1585.98 2419.26 L1607.27 2417.16 L1628.55 2414.44 L1649.71 2410.97 L1671.00 2406.64 L1692.28 2401.44 L1713.44 2395.26 L1734.73 2387.71 L1756.01 2378.92 L1777.17 2368.65 L1798.46 2356.64 L1819.74 2343.03 L1840.90 2327.56 L1862.19 2310.24 L1883.47 2291.06 L1904.76 2269.89 L1925.92 2246.88 L1947.21 2222.12 L1968.49 2195.52 L1989.65 2167.55 L2010.94 2138.10 L2032.22 2107.53 L2053.38 2076.22 L2074.67 2044.17 L2095.95 2011.99 L2117.11 1979.81 L2138.40 1947.89 L2159.68 1916.33 L2180.97 1885.39 L2202.13 1855.32 L2223.42 1825.86 L2244.70 1797.40 L2265.86 1769.93 L2287.15 1743.44 L2308.43 1717.83 L2329.59 1693.32 L2350.88 1669.81 L2372.16 1647.16 L2393.32 1625.51 L2414.61 1604.59 L2435.89 1584.54 L2457.06 1565.12 L2478.34 1546.30 L2499.63 1528.11 L2520.91 1510.42 L2542.07 1493.34 L2563.36 1476.75 L2584.64 1460.67 L2605.80 1445.07 L2627.09 1430.10 L2648.37 1415.62 L2669.53 1401.76 L2690.82 1388.27 L2712.11 1375.40 L2733.27 1362.90 L2754.55 1350.90 L2775.84 1339.39 L2797.12 1328.37 L2818.28 1317.85 L2839.57 1307.58 L2860.85 1297.81 L2882.01 1288.53 L2903.30 1279.49 L2924.58 1270.95 L2945.74 1262.66 L2967.03 1254.74 L2988.32 1247.19 L3009.48 1240.01 L3030.76 1233.08 L3052.05 1226.40 L3073.33 1220.09 L3094.49 1214.03 L3115.78 1208.09 L3137.06 1202.52 L3158.22 1197.19 L3179.51 1192.00 L3200.79 1187.05 L3221.95 1182.34 L3243.24 1177.77 L3264.53 1173.43 L3285.69 1169.10 L3306.97 1165.02 L3328.26 1161.18 L3349.42 1157.35 L3370.70 1153.63 L3391.99 1150.04 L3413.27 1146.58 L3434.43 1143.24 L3455.72 1139.90 L3477.00 1136.68 L3498.16 1133.46 L3519.45 1130.37 L3540.74 1127.40 L3561.90 1124.43 L3583.18 1121.46 L3604.47 1118.49 L3625.63 1115.64 L3646.91 1112.79" stroke-linejoin="round" style="fill:none;stroke:#0000FF;stroke-width:8.64"/>
	<line x1="524.08" y1="2489.19" x2="524.08" y2="100.86" style="stroke:#000000;stroke-width:5.76"/>
	<line x1="524.08" y1="2425.82" x2="484.11" y2="2425.82" style="stroke:#000000;stroke-width:5.76"/>
	<text x="464.06" y="2460.85" style="font-family:'Helvetica';font-size:99.99px;fill:#000000" text-anchor="end">0.00</text>
	<line x1="524.08" y1="1671.91" x2="484.11" y2="1671.91" style="stroke:#000000;stroke-width:5.76"/>
	<text x="464.06" y="1706.94" style="font-family:'Helvetica';font-size:99.99px;fill:#000000" text-anchor="end">0.05</text>
	<line x1="524.08" y1="918.01" x2="484.11" y2="918.01" style="stroke:#000000;stroke-width:5.76"/>
	<text x="464.06" y="953.03" style="font-family:'Helvetica';font-size:99.99px;fill:#000000" text-anchor="end">0.10</text>
	<line x1="524.08" y1="164.22" x2="484.11" y2="164.22" style="stroke:#000000;stroke-width:5.76"/>
	<text x="464.06" y="199.25" style="font-family:'Helvetica';font-size:99.99px;fill:#000000" text-anchor="end">0.15</text>
	<text x="190.71" y="1294.96" style="font-family:'Helvetica';font-size:99.99px;fill:#000000" transform="rotate(-90 190.71,1294.96)" text-anchor="middle">Cumulative mortality (%)</text>
	<line x1="524.08" y1="2489.19" x2="3859.02" y2="2489.19" style="stroke:#000000;stroke-width:5.76"/>
	<line x1="587.44" y1="2489.19" x2="587.44" y2="2529.16" style="stroke:#000000;stroke-width:5.76"/>
	<text x="587.44" y="2619.14" style="font-family:'Helvetica';font-size:99.99px;fill:#000000" text-anchor="middle">1 February</text>
	<line x1="1203.59" y1="2489.19" x2="1203.59" y2="2529.16" style="stroke:#000000;stroke-width:5.76"/>
	<text x="1203.59" y="2619.14" style="font-family:'Helvetica';font-size:99.99px;fill:#000000" text-anchor="middle">1 March</text>
	<line x1="1862.31" y1="2489.19" x2="1862.31" y2="2529.16" style="stroke:#000000;stroke-width:5.76"/>
	<text x="1862.31" y="2619.14" style="font-family:'Helvetica';font-size:99.99px;fill:#000000" text-anchor="middle">1 April</text>
	<line x1="2499.63" y1="2489.19" x2="2499.63" y2="2529.16" style="stroke:#000000;stroke-width:5.76"/>
	<text x="2499.63" y="2619.14" style="font-family:'Helvetica';font-size:99.99px;fill:#000000" text-anchor="middle">1 May</text>
	<line x1="3158.35" y1="2489.19" x2="3158.35" y2="2529.16" style="stroke:#000000;stroke-width:5.76"/>
	<text x="3158.35" y="2619.14" style="font-family:'Helvetica';font-size:99.99px;fill:#000000" text-anchor="middle">1 June</text>
	<line x1="3795.66" y1="2489.19" x2="3795.66" y2="2529.16" style="stroke:#000000;stroke-width:5.76"/>
	<text x="3795.66" y="2619.14" style="font-family:'Helvetica';font-size:99.99px;fill:#000000" text-anchor="middle">1 July</text>
	<text x="2191.61" y="2729.16" style="font-family:'Helvetica';font-size:99.99px;fill:#000000" text-anchor="middle">Date in 2020</text>
	<rect x="558.61" y="135.39" width="856.23" height="326.34" style="fill:#FFFFFF"/>
	<rect x="561.49" y="138.27" width="850.47" height="320.58" style="fill:none;stroke:#000000;stroke-width:5.76"/>
	<rect x="601.92" y="178.58" width="374.34" height="99.99" style="fill:#FF3333;fill-opacity:0.25"/>
	<rect x="606.24" y="182.90" width="365.70" height="91.35" style="fill:none;stroke:#FF0000;stroke-opacity:0.25;stroke-width:8.64"/>
	<rect x="601.92" y="318.54" width="374.34" height="99.99" style="fill:#3333FF;fill-opacity:0.25"/>
	<rect x="606.24" y="322.86" width="365.70" height="91.35" style="fill:none;stroke:#0000FF;stroke-opacity:0.25;stroke-width:8.64"/>
	<text x="1036.28" y="263.60" style="font-family:'Helvetica';font-size:99.99px;fill:#000000">No HIV</text>
	<text x="1036.28" y="403.57" style="font-family:'Helvetica';font-size:99.99px;fill:#000000">HIV</text>
</svg>
