<?xml version="1.0" encoding="UTF-8" standalone="no"?>
<!-- This is a Stata 16.1 generated SVG file (http://www.stata.com) -->

<svg version="1.1" width="5.50in" height="4.00in" viewBox="0 0 3960 2880" xmlns="http://www.w3.org/2000/svg" xmlns:xlink="http://www.w3.org/1999/xlink">
	<desc>Stata Graph - Graph</desc>
	<rect x="0" y="0" width="3960" height="2880" style="fill:#EAF2F3;stroke:none"/>
	<rect x="0.00" y="0.00" width="3959.88" height="2880.00" style="fill:#EAF2F3"/>
	<rect x="2.88" y="2.88" width="3954.12" height="2874.24" style="fill:none;stroke:#EAF2F3;stroke-width:5.76"/>
	<rect x="290.81" y="100.86" width="3568.21" height="1992.81" style="fill:#FFFFFF"/>
	<rect x="293.69" y="103.74" width="3562.45" height="1987.05" style="fill:none;stroke:#FFFFFF;stroke-width:5.76"/>
	<line x1="290.81" y1="2030.31" x2="3859.02" y2="2030.31" style="stroke:#EAF2F3;stroke-width:8.64"/>
	<line x1="290.81" y1="1563.75" x2="3859.02" y2="1563.75" style="stroke:#EAF2F3;stroke-width:8.64"/>
	<line x1="290.81" y1="1097.20" x2="3859.02" y2="1097.20" style="stroke:#EAF2F3;stroke-width:8.64"/>
	<line x1="290.81" y1="630.65" x2="3859.02" y2="630.65" style="stroke:#EAF2F3;stroke-width:8.64"/>
	<path d=" M354.05 2030.43 L486.46 2030.43 L618.87 2030.43 L751.16 2030.43 L1015.86 2028.82 L1148.28 2010.13 L1280.69 1923.14 L1412.98 1702.85 L1545.39 1494.58 L1677.80 1472.67 L1810.09 1542.10 L1942.50 1647.16 L2074.92 1739.48 L2207.20 1821.90 L2339.62 1853.83 L2472.03 1892.32 L2604.32 1925.24 L2736.73 1958.03 L2869.02 1981.18 L3001.43 1998.62 L3133.84 2030.43 L3266.13 2030.43 L3398.55 2030.43 L3530.96 2030.43 L3663.25 2030.43" stroke-linejoin="round" style="fill:none;stroke:#1A476F;stroke-width:8.64"/>
	<circle cx="354.05" cy="2030.43" r="26.35" style="fill:#1A476F"/>
	<circle cx="354.05" cy="2030.43" r="22.03" style="fill:none;stroke:#1A476F;stroke-width:8.64"/>
	<circle cx="486.46" cy="2030.43" r="26.35" style="fill:#1A476F"/>
	<circle cx="486.46" cy="2030.43" r="22.03" style="fill:none;stroke:#1A476F;stroke-width:8.64"/>
	<circle cx="618.87" cy="2030.43" r="26.35" style="fill:#1A476F"/>
	<circle cx="618.87" cy="2030.43" r="22.03" style="fill:none;stroke:#1A476F;stroke-width:8.64"/>
	<circle cx="751.16" cy="2030.43" r="26.35" style="fill:#1A476F"/>
	<circle cx="751.16" cy="2030.43" r="22.03" style="fill:none;stroke:#1A476F;stroke-width:8.64"/>
	<circle cx="1015.86" cy="2028.82" r="26.35" style="fill:#1A476F"/>
	<circle cx="1015.86" cy="2028.82" r="22.03" style="fill:none;stroke:#1A476F;stroke-width:8.64"/>
	<circle cx="1148.28" cy="2010.13" r="26.35" style="fill:#1A476F"/>
	<circle cx="1148.28" cy="2010.13" r="22.03" style="fill:none;stroke:#1A476F;stroke-width:8.64"/>
	<circle cx="1280.69" cy="1923.14" r="26.35" style="fill:#1A476F"/>
	<circle cx="1280.69" cy="1923.14" r="22.03" style="fill:none;stroke:#1A476F;stroke-width:8.64"/>
	<circle cx="1412.98" cy="1702.85" r="26.35" style="fill:#1A476F"/>
	<circle cx="1412.98" cy="1702.85" r="22.03" style="fill:none;stroke:#1A476F;stroke-width:8.64"/>
	<circle cx="1545.39" cy="1494.58" r="26.35" style="fill:#1A476F"/>
	<circle cx="1545.39" cy="1494.58" r="22.03" style="fill:none;stroke:#1A476F;stroke-width:8.64"/>
	<circle cx="1677.80" cy="1472.67" r="26.35" style="fill:#1A476F"/>
	<circle cx="1677.80" cy="1472.67" r="22.03" style="fill:none;stroke:#1A476F;stroke-width:8.64"/>
	<circle cx="1810.09" cy="1542.10" r="26.35" style="fill:#1A476F"/>
	<circle cx="1810.09" cy="1542.10" r="22.03" style="fill:none;stroke:#1A476F;stroke-width:8.64"/>
	<circle cx="1942.50" cy="1647.16" r="26.35" style="fill:#1A476F"/>
	<circle cx="1942.50" cy="1647.16" r="22.03" style="fill:none;stroke:#1A476F;stroke-width:8.64"/>
	<circle cx="2074.92" cy="1739.48" r="26.35" style="fill:#1A476F"/>
	<circle cx="2074.92" cy="1739.48" r="22.03" style="fill:none;stroke:#1A476F;stroke-width:8.64"/>
	<circle cx="2207.20" cy="1821.90" r="26.35" style="fill:#1A476F"/>
	<circle cx="2207.20" cy="1821.90" r="22.03" style="fill:none;stroke:#1A476F;stroke-width:8.64"/>
	<circle cx="2339.62" cy="1853.83" r="26.35" style="fill:#1A476F"/>
	<circle cx="2339.62" cy="1853.83" r="22.03" style="fill:none;stroke:#1A476F;stroke-width:8.64"/>
	<circle cx="2472.03" cy="1892.32" r="26.35" style="fill:#1A476F"/>
	<circle cx="2472.03" cy="1892.32" r="22.03" style="fill:none;stroke:#1A476F;stroke-width:8.64"/>
	<circle cx="2604.32" cy="1925.24" r="26.35" style="fill:#1A476F"/>
	<circle cx="2604.32" cy="1925.24" r="22.03" style="fill:none;stroke:#1A476F;stroke-width:8.64"/>
	<circle cx="2736.73" cy="1958.03" r="26.35" style="fill:#1A476F"/>
	<circle cx="2736.73" cy="1958.03" r="22.03" style="fill:none;stroke:#1A476F;stroke-width:8.64"/>
	<circle cx="2869.02" cy="1981.18" r="26.35" style="fill:#1A476F"/>
	<circle cx="2869.02" cy="1981.18" r="22.03" style="fill:none;stroke:#1A476F;stroke-width:8.64"/>
	<circle cx="3001.43" cy="1998.62" r="26.35" style="fill:#1A476F"/>
	<circle cx="3001.43" cy="1998.62" r="22.03" style="fill:none;stroke:#1A476F;stroke-width:8.64"/>
	<circle cx="3133.84" cy="2030.43" r="26.35" style="fill:#1A476F"/>
	<circle cx="3133.84" cy="2030.43" r="22.03" style="fill:none;stroke:#1A476F;stroke-width:8.64"/>
	<circle cx="3266.13" cy="2030.43" r="26.35" style="fill:#1A476F"/>
	<circle cx="3266.13" cy="2030.43" r="22.03" style="fill:none;stroke:#1A476F;stroke-width:8.64"/>
	<circle cx="3398.55" cy="2030.43" r="26.35" style="fill:#1A476F"/>
	<circle cx="3398.55" cy="2030.43" r="22.03" style="fill:none;stroke:#1A476F;stroke-width:8.64"/>
	<circle cx="3530.96" cy="2030.43" r="26.35" style="fill:#1A476F"/>
	<circle cx="3530.96" cy="2030.43" r="22.03" style="fill:none;stroke:#1A476F;stroke-width:8.64"/>
	<circle cx="3663.25" cy="2030.43" r="26.35" style="fill:#1A476F"/>
	<circle cx="3663.25" cy="2030.43" r="22.03" style="fill:none;stroke:#1A476F;stroke-width:8.64"/>
	<path d=" M354.05 1233.58 L486.46 1223.55 L618.87 1209.32 L751.16 1212.29 L883.58 1192.00 L1015.86 1206.72 L1148.28 1172.44 L1280.69 1156.36 L1412.98 1097.08 L1545.39 1022.95 L1677.80 1083.59 L1810.09 1154.25 L1942.50 1226.28 L2074.92 1260.19 L2207.20 1310.80 L2339.62 1328.00 L2472.03 1396.31 L2604.32 1369.34 L2736.73 1381.46 L2869.02 1393.59 L3001.43 1558.93 L3133.84 2030.43 L3266.13 2030.43 L3398.55 2030.43 L3530.96 2030.43 L3663.25 2030.43" stroke-linejoin="round" style="fill:none;stroke:#90353B;stroke-width:8.64"/>
	<circle cx="354.05" cy="1233.58" r="26.35" style="fill:#90353B"/>
	<circle cx="354.05" cy="1233.58" r="22.03" style="fill:none;stroke:#90353B;stroke-width:8.64"/>
	<circle cx="486.46" cy="1223.55" r="26.35" style="fill:#90353B"/>
	<circle cx="486.46" cy="1223.55" r="22.03" style="fill:none;stroke:#90353B;stroke-width:8.64"/>
	<circle cx="618.87" cy="1209.32" r="26.35" style="fill:#90353B"/>
	<circle cx="618.87" cy="1209.32" r="22.03" style="fill:none;stroke:#90353B;stroke-width:8.64"/>
	<circle cx="751.16" cy="1212.29" r="26.35" style="fill:#90353B"/>
	<circle cx="751.16" cy="1212.29" r="22.03" style="fill:none;stroke:#90353B;stroke-width:8.64"/>
	<circle cx="883.58" cy="1192.00" r="26.35" style="fill:#90353B"/>
	<circle cx="883.58" cy="1192.00" r="22.03" style="fill:none;stroke:#90353B;stroke-width:8.64"/>
	<circle cx="1015.86" cy="1206.72" r="26.35" style="fill:#90353B"/>
	<circle cx="1015.86" cy="1206.72" r="22.03" style="fill:none;stroke:#90353B;stroke-width:8.64"/>
	<circle cx="1148.28" cy="1172.44" r="26.35" style="fill:#90353B"/>
	<circle cx="1148.28" cy="1172.44" r="22.03" style="fill:none;stroke:#90353B;stroke-width:8.64"/>
	<circle cx="1280.69" cy="1156.36" r="26.35" style="fill:#90353B"/>
	<circle cx="1280.69" cy="1156.36" r="22.03" style="fill:none;stroke:#90353B;stroke-width:8.64"/>
	<circle cx="1412.98" cy="1097.08" r="26.35" style="fill:#90353B"/>
	<circle cx="1412.98" cy="1097.08" r="22.03" style="fill:none;stroke:#90353B;stroke-width:8.64"/>
	<circle cx="1545.39" cy="1022.95" r="26.35" style="fill:#90353B"/>
	<circle cx="1545.39" cy="1022.95" r="22.03" style="fill:none;stroke:#90353B;stroke-width:8.64"/>
	<circle cx="1677.80" cy="1083.59" r="26.35" style="fill:#90353B"/>
	<circle cx="1677.80" cy="1083.59" r="22.03" style="fill:none;stroke:#90353B;stroke-width:8.64"/>
	<circle cx="1810.09" cy="1154.25" r="26.35" style="fill:#90353B"/>
	<circle cx="1810.09" cy="1154.25" r="22.03" style="fill:none;stroke:#90353B;stroke-width:8.64"/>
	<circle cx="1942.50" cy="1226.28" r="26.35" style="fill:#90353B"/>
	<circle cx="1942.50" cy="1226.28" r="22.03" style="fill:none;stroke:#90353B;stroke-width:8.64"/>
	<circle cx="2074.92" cy="1260.19" r="26.35" style="fill:#90353B"/>
	<circle cx="2074.92" cy="1260.19" r="22.03" style="fill:none;stroke:#90353B;stroke-width:8.64"/>
	<circle cx="2207.20" cy="1310.80" r="26.35" style="fill:#90353B"/>
	<circle cx="2207.20" cy="1310.80" r="22.03" style="fill:none;stroke:#90353B;stroke-width:8.64"/>
	<circle cx="2339.62" cy="1328.00" r="26.35" style="fill:#90353B"/>
	<circle cx="2339.62" cy="1328.00" r="22.03" style="fill:none;stroke:#90353B;stroke-width:8.64"/>
	<circle cx="2472.03" cy="1396.31" r="26.35" style="fill:#90353B"/>
	<circle cx="2472.03" cy="1396.31" r="22.03" style="fill:none;stroke:#90353B;stroke-width:8.64"/>
	<circle cx="2604.32" cy="1369.34" r="26.35" style="fill:#90353B"/>
	<circle cx="2604.32" cy="1369.34" r="22.03" style="fill:none;stroke:#90353B;stroke-width:8.64"/>
	<circle cx="2736.73" cy="1381.46" r="26.35" style="fill:#90353B"/>
	<circle cx="2736.73" cy="1381.46" r="22.03" style="fill:none;stroke:#90353B;stroke-width:8.64"/>
	<circle cx="2869.02" cy="1393.59" r="26.35" style="fill:#90353B"/>
	<circle cx="2869.02" cy="1393.59" r="22.03" style="fill:none;stroke:#90353B;stroke-width:8.64"/>
	<circle cx="3001.43" cy="1558.93" r="26.35" style="fill:#90353B"/>
	<circle cx="3001.43" cy="1558.93" r="22.03" style="fill:none;stroke:#90353B;stroke-width:8.64"/>
	<circle cx="3133.84" cy="2030.43" r="26.35" style="fill:#90353B"/>
	<circle cx="3133.84" cy="2030.43" r="22.03" style="fill:none;stroke:#90353B;stroke-width:8.64"/>
	<circle cx="3266.13" cy="2030.43" r="26.35" style="fill:#90353B"/>
	<circle cx="3266.13" cy="2030.43" r="22.03" style="fill:none;stroke:#90353B;stroke-width:8.64"/>
	<circle cx="3398.55" cy="2030.43" r="26.35" style="fill:#90353B"/>
	<circle cx="3398.55" cy="2030.43" r="22.03" style="fill:none;stroke:#90353B;stroke-width:8.64"/>
	<circle cx="3530.96" cy="2030.43" r="26.35" style="fill:#90353B"/>
	<circle cx="3530.96" cy="2030.43" r="22.03" style="fill:none;stroke:#90353B;stroke-width:8.64"/>
	<circle cx="3663.25" cy="2030.43" r="26.35" style="fill:#90353B"/>
	<circle cx="3663.25" cy="2030.43" r="22.03" style="fill:none;stroke:#90353B;stroke-width:8.64"/>
	<path d=" M354.05 1233.58 L486.46 1223.55 L618.87 1209.32 L751.16 1212.29 L883.58 1191.25 L1015.86 1205.12 L1148.28 1152.15 L1280.69 1049.06 L1412.98 769.50 L1545.39 487.10 L1677.80 525.83 L1810.09 666.04 L1942.50 843.01 L2074.92 969.24 L2207.20 1102.15 L2339.62 1151.41 L2472.03 1258.21 L2604.32 1264.15 L2736.73 1309.07 L2869.02 1344.34 L3001.43 1307.46 L3133.84 1572.29 L3266.13 2030.43 L3398.55 2030.43 L3530.96 2030.43 L3663.25 2030.43" stroke-linejoin="round" style="fill:none;stroke:#55752F;stroke-width:8.64"/>
	<circle cx="354.05" cy="1233.58" r="26.35" style="fill:#55752F"/>
	<circle cx="354.05" cy="1233.58" r="22.03" style="fill:none;stroke:#55752F;stroke-width:8.64"/>
	<circle cx="486.46" cy="1223.55" r="26.35" style="fill:#55752F"/>
	<circle cx="486.46" cy="1223.55" r="22.03" style="fill:none;stroke:#55752F;stroke-width:8.64"/>
	<circle cx="618.87" cy="1209.32" r="26.35" style="fill:#55752F"/>
	<circle cx="618.87" cy="1209.32" r="22.03" style="fill:none;stroke:#55752F;stroke-width:8.64"/>
	<circle cx="751.16" cy="1212.29" r="26.35" style="fill:#55752F"/>
	<circle cx="751.16" cy="1212.29" r="22.03" style="fill:none;stroke:#55752F;stroke-width:8.64"/>
	<circle cx="883.58" cy="1191.25" r="26.35" style="fill:#55752F"/>
	<circle cx="883.58" cy="1191.25" r="22.03" style="fill:none;stroke:#55752F;stroke-width:8.64"/>
	<circle cx="1015.86" cy="1205.12" r="26.35" style="fill:#55752F"/>
	<circle cx="1015.86" cy="1205.12" r="22.03" style="fill:none;stroke:#55752F;stroke-width:8.64"/>
	<circle cx="1148.28" cy="1152.15" r="26.35" style="fill:#55752F"/>
	<circle cx="1148.28" cy="1152.15" r="22.03" style="fill:none;stroke:#55752F;stroke-width:8.64"/>
	<circle cx="1280.69" cy="1049.06" r="26.35" style="fill:#55752F"/>
	<circle cx="1280.69" cy="1049.06" r="22.03" style="fill:none;stroke:#55752F;stroke-width:8.64"/>
	<circle cx="1412.98" cy="769.50" r="26.35" style="fill:#55752F"/>
	<circle cx="1412.98" cy="769.50" r="22.03" style="fill:none;stroke:#55752F;stroke-width:8.64"/>
	<circle cx="1545.39" cy="487.10" r="26.35" style="fill:#55752F"/>
	<circle cx="1545.39" cy="487.10" r="22.03" style="fill:none;stroke:#55752F;stroke-width:8.64"/>
	<circle cx="1677.80" cy="525.83" r="26.35" style="fill:#55752F"/>
	<circle cx="1677.80" cy="525.83" r="22.03" style="fill:none;stroke:#55752F;stroke-width:8.64"/>
	<circle cx="1810.09" cy="666.04" r="26.35" style="fill:#55752F"/>
	<circle cx="1810.09" cy="666.04" r="22.03" style="fill:none;stroke:#55752F;stroke-width:8.64"/>
	<circle cx="1942.50" cy="843.01" r="26.35" style="fill:#55752F"/>
	<circle cx="1942.50" cy="843.01" r="22.03" style="fill:none;stroke:#55752F;stroke-width:8.64"/>
	<circle cx="2074.92" cy="969.24" r="26.35" style="fill:#55752F"/>
	<circle cx="2074.92" cy="969.24" r="22.03" style="fill:none;stroke:#55752F;stroke-width:8.64"/>
	<circle cx="2207.20" cy="1102.15" r="26.35" style="fill:#55752F"/>
	<circle cx="2207.20" cy="1102.15" r="22.03" style="fill:none;stroke:#55752F;stroke-width:8.64"/>
	<circle cx="2339.62" cy="1151.41" r="26.35" style="fill:#55752F"/>
	<circle cx="2339.62" cy="1151.41" r="22.03" style="fill:none;stroke:#55752F;stroke-width:8.64"/>
	<circle cx="2472.03" cy="1258.21" r="26.35" style="fill:#55752F"/>
	<circle cx="2472.03" cy="1258.21" r="22.03" style="fill:none;stroke:#55752F;stroke-width:8.64"/>
	<circle cx="2604.32" cy="1264.15" r="26.35" style="fill:#55752F"/>
	<circle cx="2604.32" cy="1264.15" r="22.03" style="fill:none;stroke:#55752F;stroke-width:8.64"/>
	<circle cx="2736.73" cy="1309.07" r="26.35" style="fill:#55752F"/>
	<circle cx="2736.73" cy="1309.07" r="22.03" style="fill:none;stroke:#55752F;stroke-width:8.64"/>
	<circle cx="2869.02" cy="1344.34" r="26.35" style="fill:#55752F"/>
	<circle cx="2869.02" cy="1344.34" r="22.03" style="fill:none;stroke:#55752F;stroke-width:8.64"/>
	<circle cx="3001.43" cy="1307.46" r="26.35" style="fill:#55752F"/>
	<circle cx="3001.43" cy="1307.46" r="22.03" style="fill:none;stroke:#55752F;stroke-width:8.64"/>
	<circle cx="3133.84" cy="1572.29" r="26.35" style="fill:#55752F"/>
	<circle cx="3133.84" cy="1572.29" r="22.03" style="fill:none;stroke:#55752F;stroke-width:8.64"/>
	<circle cx="3266.13" cy="2030.43" r="26.35" style="fill:#55752F"/>
	<circle cx="3266.13" cy="2030.43" r="22.03" style="fill:none;stroke:#55752F;stroke-width:8.64"/>
	<circle cx="3398.55" cy="2030.43" r="26.35" style="fill:#55752F"/>
	<circle cx="3398.55" cy="2030.43" r="22.03" style="fill:none;stroke:#55752F;stroke-width:8.64"/>
	<circle cx="3530.96" cy="2030.43" r="26.35" style="fill:#55752F"/>
	<circle cx="3530.96" cy="2030.43" r="22.03" style="fill:none;stroke:#55752F;stroke-width:8.64"/>
	<circle cx="3663.25" cy="2030.43" r="26.35" style="fill:#55752F"/>
	<circle cx="3663.25" cy="2030.43" r="22.03" style="fill:none;stroke:#55752F;stroke-width:8.64"/>
	<line x1="290.81" y1="2093.67" x2="290.81" y2="100.86" style="stroke:#000000;stroke-width:5.76"/>
	<line x1="290.81" y1="2030.31" x2="250.84" y2="2030.31" style="stroke:#000000;stroke-width:5.76"/>
	<text x="200.73" y="2030.31" style="font-family:'Helvetica';font-size:99.99px;fill:#000000" transform="rotate(-90 200.73,2030.31)" text-anchor="middle">0</text>
	<line x1="290.81" y1="1563.75" x2="250.84" y2="1563.75" style="stroke:#000000;stroke-width:5.76"/>
	<text x="200.73" y="1563.75" style="font-family:'Helvetica';font-size:99.99px;fill:#000000" transform="rotate(-90 200.73,1563.75)" text-anchor="middle">2000</text>
	<line x1="290.81" y1="1097.20" x2="250.84" y2="1097.20" style="stroke:#000000;stroke-width:5.76"/>
	<text x="200.73" y="1097.20" style="font-family:'Helvetica';font-size:99.99px;fill:#000000" transform="rotate(-90 200.73,1097.20)" text-anchor="middle">4000</text>
	<line x1="290.81" y1="630.65" x2="250.84" y2="630.65" style="stroke:#000000;stroke-width:5.76"/>
	<text x="200.73" y="630.65" style="font-family:'Helvetica';font-size:99.99px;fill:#000000" transform="rotate(-90 200.73,630.65)" text-anchor="middle">6000</text>
	<line x1="290.81" y1="164.22" x2="250.84" y2="164.22" style="stroke:#000000;stroke-width:5.76"/>
	<text x="200.73" y="164.22" style="font-family:'Helvetica';font-size:99.99px;fill:#000000" transform="rotate(-90 200.73,164.22)" text-anchor="middle">8000</text>
	<line x1="290.81" y1="2093.67" x2="3859.02" y2="2093.67" style="stroke:#000000;stroke-width:5.76"/>
	<line x1="354.17" y1="2093.67" x2="354.17" y2="2133.64" style="stroke:#000000;stroke-width:5.76"/>
	<text x="354.17" y="2223.62" style="font-family:'Helvetica';font-size:99.99px;fill:#000000" text-anchor="middle">01feb2020</text>
	<line x1="1488.71" y1="2093.67" x2="1488.71" y2="2133.64" style="stroke:#000000;stroke-width:5.76"/>
	<text x="1488.71" y="2223.62" style="font-family:'Helvetica';font-size:99.99px;fill:#000000" text-anchor="middle">01apr2020</text>
	<line x1="2642.19" y1="2093.67" x2="2642.19" y2="2133.64" style="stroke:#000000;stroke-width:5.76"/>
	<text x="2642.19" y="2223.62" style="font-family:'Helvetica';font-size:99.99px;fill:#000000" text-anchor="middle">01jun2020</text>
	<line x1="3795.66" y1="2093.67" x2="3795.66" y2="2133.64" style="stroke:#000000;stroke-width:5.76"/>
	<text x="3795.66" y="2223.62" style="font-family:'Helvetica';font-size:99.99px;fill:#000000" text-anchor="middle">01aug2020</text>
	<text x="2074.92" y="2333.64" style="font-family:'Helvetica';font-size:99.99px;fill:#000000" text-anchor="middle">startdate</text>
	<rect x="970.32" y="2418.27" width="2209.31" height="326.34" style="fill:#FFFFFF"/>
	<rect x="973.20" y="2421.15" width="2203.55" height="320.58" style="fill:none;stroke:#000000;stroke-width:5.76"/>
	<line x1="1013.51" y1="2511.46" x2="1387.86" y2="2511.46" style="stroke:#1A476F;stroke-width:8.64"/>
	<circle cx="1200.62" cy="2511.46" r="26.35" style="fill:#1A476F"/>
	<circle cx="1200.62" cy="2511.46" r="22.03" style="fill:none;stroke:#1A476F;stroke-width:8.64"/>
	<line x1="2060.31" y1="2511.46" x2="2434.78" y2="2511.46" style="stroke:#90353B;stroke-width:8.64"/>
	<circle cx="2247.55" cy="2511.46" r="26.35" style="fill:#90353B"/>
	<circle cx="2247.55" cy="2511.46" r="22.03" style="fill:none;stroke:#90353B;stroke-width:8.64"/>
	<line x1="1013.51" y1="2651.43" x2="1387.86" y2="2651.43" style="stroke:#55752F;stroke-width:8.64"/>
	<circle cx="1200.62" cy="2651.43" r="26.35" style="fill:#55752F"/>
	<circle cx="1200.62" cy="2651.43" r="22.03" style="fill:none;stroke:#55752F;stroke-width:8.64"/>
	<text x="1447.88" y="2546.49" style="font-family:'Helvetica';font-size:99.99px;fill:#000000">covdeaths</text>
	<text x="2494.68" y="2546.49" style="font-family:'Helvetica';font-size:99.99px;fill:#000000">noncovdeaths</text>
	<text x="1447.88" y="2686.46" style="font-family:'Helvetica';font-size:99.99px;fill:#000000">alldeaths</text>
</svg>
