<?xml version="1.0" encoding="UTF-8" standalone="no"?>
<!-- This is a Stata 16.1 generated SVG file (http://www.stata.com) -->

<svg version="1.1" width="5.50in" height="4.00in" viewBox="0 0 3960 2880" xmlns="http://www.w3.org/2000/svg" xmlns:xlink="http://www.w3.org/1999/xlink">
	<desc>Stata Graph - Graph</desc>
	<rect x="0" y="0" width="3960" height="2880" style="fill:#EAF2F3;stroke:none"/>
	<rect x="0.00" y="0.00" width="3959.88" height="2880.00" style="fill:#EAF2F3"/>
	<rect x="2.88" y="2.88" width="3954.12" height="2874.24" style="fill:none;stroke:#EAF2F3;stroke-width:5.76"/>
	<rect x="290.81" y="100.86" width="3568.21" height="1992.81" style="fill:#FFFFFF"/>
	<rect x="293.69" y="103.74" width="3562.45" height="1987.05" style="fill:none;stroke:#FFFFFF;stroke-width:5.76"/>
	<line x1="290.81" y1="2030.31" x2="3859.02" y2="2030.31" style="stroke:#EAF2F3;stroke-width:8.64"/>
	<line x1="290.81" y1="1679.34" x2="3859.02" y2="1679.34" style="stroke:#EAF2F3;stroke-width:8.64"/>
	<line x1="290.81" y1="1328.25" x2="3859.02" y2="1328.25" style="stroke:#EAF2F3;stroke-width:8.64"/>
	<line x1="290.81" y1="977.16" x2="3859.02" y2="977.16" style="stroke:#EAF2F3;stroke-width:8.64"/>
	<line x1="290.81" y1="626.19" x2="3859.02" y2="626.19" style="stroke:#EAF2F3;stroke-width:8.64"/>
	<line x1="290.81" y1="275.10" x2="3859.02" y2="275.10" style="stroke:#EAF2F3;stroke-width:8.64"/>
	<path d=" M354.05 2015.95 L486.46 2013.85 L618.87 2000.61 L751.16 1975.24 L883.58 1929.94 L1015.86 1838.73 L1148.28 1534.05 L1280.69 898.58 L1412.98 164.22 L1545.39 324.98 L1677.80 770.49 L1810.09 1089.90 L1942.50 1221.57 L2074.92 1427.62 L2207.20 1565.24 L2339.62 1737.63 L2472.03 1904.70 L2604.32 2021.27 L2736.73 2030.43 L2869.02 2030.43 L3001.43 2030.43 L3133.84 2030.43 L3266.13 2030.43 L3398.55 2030.43 L3530.96 2030.43 L3663.25 2030.43" stroke-linejoin="round" style="fill:none;stroke:#1A476F;stroke-width:8.64"/>
	<circle cx="354.05" cy="2015.95" r="26.35" style="fill:#1A476F"/>
	<circle cx="354.05" cy="2015.95" r="22.03" style="fill:none;stroke:#1A476F;stroke-width:8.64"/>
	<circle cx="486.46" cy="2013.85" r="26.35" style="fill:#1A476F"/>
	<circle cx="486.46" cy="2013.85" r="22.03" style="fill:none;stroke:#1A476F;stroke-width:8.64"/>
	<circle cx="618.87" cy="2000.61" r="26.35" style="fill:#1A476F"/>
	<circle cx="618.87" cy="2000.61" r="22.03" style="fill:none;stroke:#1A476F;stroke-width:8.64"/>
	<circle cx="751.16" cy="1975.24" r="26.35" style="fill:#1A476F"/>
	<circle cx="751.16" cy="1975.24" r="22.03" style="fill:none;stroke:#1A476F;stroke-width:8.64"/>
	<circle cx="883.58" cy="1929.94" r="26.35" style="fill:#1A476F"/>
	<circle cx="883.58" cy="1929.94" r="22.03" style="fill:none;stroke:#1A476F;stroke-width:8.64"/>
	<circle cx="1015.86" cy="1838.73" r="26.35" style="fill:#1A476F"/>
	<circle cx="1015.86" cy="1838.73" r="22.03" style="fill:none;stroke:#1A476F;stroke-width:8.64"/>
	<circle cx="1148.28" cy="1534.05" r="26.35" style="fill:#1A476F"/>
	<circle cx="1148.28" cy="1534.05" r="22.03" style="fill:none;stroke:#1A476F;stroke-width:8.64"/>
	<circle cx="1280.69" cy="898.58" r="26.35" style="fill:#1A476F"/>
	<circle cx="1280.69" cy="898.58" r="22.03" style="fill:none;stroke:#1A476F;stroke-width:8.64"/>
	<circle cx="1412.98" cy="164.22" r="26.35" style="fill:#1A476F"/>
	<circle cx="1412.98" cy="164.22" r="22.03" style="fill:none;stroke:#1A476F;stroke-width:8.64"/>
	<circle cx="1545.39" cy="324.98" r="26.35" style="fill:#1A476F"/>
	<circle cx="1545.39" cy="324.98" r="22.03" style="fill:none;stroke:#1A476F;stroke-width:8.64"/>
	<circle cx="1677.80" cy="770.49" r="26.35" style="fill:#1A476F"/>
	<circle cx="1677.80" cy="770.49" r="22.03" style="fill:none;stroke:#1A476F;stroke-width:8.64"/>
	<circle cx="1810.09" cy="1089.90" r="26.35" style="fill:#1A476F"/>
	<circle cx="1810.09" cy="1089.90" r="22.03" style="fill:none;stroke:#1A476F;stroke-width:8.64"/>
	<circle cx="1942.50" cy="1221.57" r="26.35" style="fill:#1A476F"/>
	<circle cx="1942.50" cy="1221.57" r="22.03" style="fill:none;stroke:#1A476F;stroke-width:8.64"/>
	<circle cx="2074.92" cy="1427.62" r="26.35" style="fill:#1A476F"/>
	<circle cx="2074.92" cy="1427.62" r="22.03" style="fill:none;stroke:#1A476F;stroke-width:8.64"/>
	<circle cx="2207.20" cy="1565.24" r="26.35" style="fill:#1A476F"/>
	<circle cx="2207.20" cy="1565.24" r="22.03" style="fill:none;stroke:#1A476F;stroke-width:8.64"/>
	<circle cx="2339.62" cy="1737.63" r="26.35" style="fill:#1A476F"/>
	<circle cx="2339.62" cy="1737.63" r="22.03" style="fill:none;stroke:#1A476F;stroke-width:8.64"/>
	<circle cx="2472.03" cy="1904.70" r="26.35" style="fill:#1A476F"/>
	<circle cx="2472.03" cy="1904.70" r="22.03" style="fill:none;stroke:#1A476F;stroke-width:8.64"/>
	<circle cx="2604.32" cy="2021.27" r="26.35" style="fill:#1A476F"/>
	<circle cx="2604.32" cy="2021.27" r="22.03" style="fill:none;stroke:#1A476F;stroke-width:8.64"/>
	<circle cx="2736.73" cy="2030.43" r="26.35" style="fill:#1A476F"/>
	<circle cx="2736.73" cy="2030.43" r="22.03" style="fill:none;stroke:#1A476F;stroke-width:8.64"/>
	<circle cx="2869.02" cy="2030.43" r="26.35" style="fill:#1A476F"/>
	<circle cx="2869.02" cy="2030.43" r="22.03" style="fill:none;stroke:#1A476F;stroke-width:8.64"/>
	<circle cx="3001.43" cy="2030.43" r="26.35" style="fill:#1A476F"/>
	<circle cx="3001.43" cy="2030.43" r="22.03" style="fill:none;stroke:#1A476F;stroke-width:8.64"/>
	<circle cx="3133.84" cy="2030.43" r="26.35" style="fill:#1A476F"/>
	<circle cx="3133.84" cy="2030.43" r="22.03" style="fill:none;stroke:#1A476F;stroke-width:8.64"/>
	<circle cx="3266.13" cy="2030.43" r="26.35" style="fill:#1A476F"/>
	<circle cx="3266.13" cy="2030.43" r="22.03" style="fill:none;stroke:#1A476F;stroke-width:8.64"/>
	<circle cx="3398.55" cy="2030.43" r="26.35" style="fill:#1A476F"/>
	<circle cx="3398.55" cy="2030.43" r="22.03" style="fill:none;stroke:#1A476F;stroke-width:8.64"/>
	<circle cx="3530.96" cy="2030.43" r="26.35" style="fill:#1A476F"/>
	<circle cx="3530.96" cy="2030.43" r="22.03" style="fill:none;stroke:#1A476F;stroke-width:8.64"/>
	<circle cx="3663.25" cy="2030.43" r="26.35" style="fill:#1A476F"/>
	<circle cx="3663.25" cy="2030.43" r="22.03" style="fill:none;stroke:#1A476F;stroke-width:8.64"/>
	<path d=" M354.05 2017.44 L486.46 2015.33 L618.87 2003.33 L751.16 1978.08 L883.58 1939.10 L1015.86 1864.72 L1148.28 1616.84 L1280.69 1041.14 L1412.98 407.15 L1545.39 548.23 L1677.80 993.37 L1810.09 1287.54 L1942.50 1448.42 L2074.92 1614.74 L2207.20 1721.17 L2339.62 1853.83 L2472.03 1953.21 L2604.32 2025.11 L2736.73 2030.43 L2869.02 2030.43 L3001.43 2030.43 L3133.84 2030.43 L3266.13 2030.43 L3398.55 2030.43 L3530.96 2030.43 L3663.25 2030.43" stroke-linejoin="round" style="fill:none;stroke:#90353B;stroke-width:8.64"/>
	<circle cx="354.05" cy="2017.44" r="26.35" style="fill:#90353B"/>
	<circle cx="354.05" cy="2017.44" r="22.03" style="fill:none;stroke:#90353B;stroke-width:8.64"/>
	<circle cx="486.46" cy="2015.33" r="26.35" style="fill:#90353B"/>
	<circle cx="486.46" cy="2015.33" r="22.03" style="fill:none;stroke:#90353B;stroke-width:8.64"/>
	<circle cx="618.87" cy="2003.33" r="26.35" style="fill:#90353B"/>
	<circle cx="618.87" cy="2003.33" r="22.03" style="fill:none;stroke:#90353B;stroke-width:8.64"/>
	<circle cx="751.16" cy="1978.08" r="26.35" style="fill:#90353B"/>
	<circle cx="751.16" cy="1978.08" r="22.03" style="fill:none;stroke:#90353B;stroke-width:8.64"/>
	<circle cx="883.58" cy="1939.10" r="26.35" style="fill:#90353B"/>
	<circle cx="883.58" cy="1939.10" r="22.03" style="fill:none;stroke:#90353B;stroke-width:8.64"/>
	<circle cx="1015.86" cy="1864.72" r="26.35" style="fill:#90353B"/>
	<circle cx="1015.86" cy="1864.72" r="22.03" style="fill:none;stroke:#90353B;stroke-width:8.64"/>
	<circle cx="1148.28" cy="1616.84" r="26.35" style="fill:#90353B"/>
	<circle cx="1148.28" cy="1616.84" r="22.03" style="fill:none;stroke:#90353B;stroke-width:8.64"/>
	<circle cx="1280.69" cy="1041.14" r="26.35" style="fill:#90353B"/>
	<circle cx="1280.69" cy="1041.14" r="22.03" style="fill:none;stroke:#90353B;stroke-width:8.64"/>
	<circle cx="1412.98" cy="407.15" r="26.35" style="fill:#90353B"/>
	<circle cx="1412.98" cy="407.15" r="22.03" style="fill:none;stroke:#90353B;stroke-width:8.64"/>
	<circle cx="1545.39" cy="548.23" r="26.35" style="fill:#90353B"/>
	<circle cx="1545.39" cy="548.23" r="22.03" style="fill:none;stroke:#90353B;stroke-width:8.64"/>
	<circle cx="1677.80" cy="993.37" r="26.35" style="fill:#90353B"/>
	<circle cx="1677.80" cy="993.37" r="22.03" style="fill:none;stroke:#90353B;stroke-width:8.64"/>
	<circle cx="1810.09" cy="1287.54" r="26.35" style="fill:#90353B"/>
	<circle cx="1810.09" cy="1287.54" r="22.03" style="fill:none;stroke:#90353B;stroke-width:8.64"/>
	<circle cx="1942.50" cy="1448.42" r="26.35" style="fill:#90353B"/>
	<circle cx="1942.50" cy="1448.42" r="22.03" style="fill:none;stroke:#90353B;stroke-width:8.64"/>
	<circle cx="2074.92" cy="1614.74" r="26.35" style="fill:#90353B"/>
	<circle cx="2074.92" cy="1614.74" r="22.03" style="fill:none;stroke:#90353B;stroke-width:8.64"/>
	<circle cx="2207.20" cy="1721.17" r="26.35" style="fill:#90353B"/>
	<circle cx="2207.20" cy="1721.17" r="22.03" style="fill:none;stroke:#90353B;stroke-width:8.64"/>
	<circle cx="2339.62" cy="1853.83" r="26.35" style="fill:#90353B"/>
	<circle cx="2339.62" cy="1853.83" r="22.03" style="fill:none;stroke:#90353B;stroke-width:8.64"/>
	<circle cx="2472.03" cy="1953.21" r="26.35" style="fill:#90353B"/>
	<circle cx="2472.03" cy="1953.21" r="22.03" style="fill:none;stroke:#90353B;stroke-width:8.64"/>
	<circle cx="2604.32" cy="2025.11" r="26.35" style="fill:#90353B"/>
	<circle cx="2604.32" cy="2025.11" r="22.03" style="fill:none;stroke:#90353B;stroke-width:8.64"/>
	<circle cx="2736.73" cy="2030.43" r="26.35" style="fill:#90353B"/>
	<circle cx="2736.73" cy="2030.43" r="22.03" style="fill:none;stroke:#90353B;stroke-width:8.64"/>
	<circle cx="2869.02" cy="2030.43" r="26.35" style="fill:#90353B"/>
	<circle cx="2869.02" cy="2030.43" r="22.03" style="fill:none;stroke:#90353B;stroke-width:8.64"/>
	<circle cx="3001.43" cy="2030.43" r="26.35" style="fill:#90353B"/>
	<circle cx="3001.43" cy="2030.43" r="22.03" style="fill:none;stroke:#90353B;stroke-width:8.64"/>
	<circle cx="3133.84" cy="2030.43" r="26.35" style="fill:#90353B"/>
	<circle cx="3133.84" cy="2030.43" r="22.03" style="fill:none;stroke:#90353B;stroke-width:8.64"/>
	<circle cx="3266.13" cy="2030.43" r="26.35" style="fill:#90353B"/>
	<circle cx="3266.13" cy="2030.43" r="22.03" style="fill:none;stroke:#90353B;stroke-width:8.64"/>
	<circle cx="3398.55" cy="2030.43" r="26.35" style="fill:#90353B"/>
	<circle cx="3398.55" cy="2030.43" r="22.03" style="fill:none;stroke:#90353B;stroke-width:8.64"/>
	<circle cx="3530.96" cy="2030.43" r="26.35" style="fill:#90353B"/>
	<circle cx="3530.96" cy="2030.43" r="22.03" style="fill:none;stroke:#90353B;stroke-width:8.64"/>
	<circle cx="3663.25" cy="2030.43" r="26.35" style="fill:#90353B"/>
	<circle cx="3663.25" cy="2030.43" r="22.03" style="fill:none;stroke:#90353B;stroke-width:8.64"/>
	<path d=" M354.05 2030.43 L486.46 2030.43 L618.87 2030.43 L751.16 2030.43 L1015.86 2027.95 L1148.28 1999.86 L1280.69 1868.93 L1412.98 1537.52 L1545.39 1224.05 L1677.80 1191.01 L1810.09 1295.70 L1942.50 1453.61 L2074.92 1592.59 L2207.20 1716.59 L2339.62 1764.61 L2472.03 1822.52 L2604.32 1872.02 L2736.73 1921.53 L2869.02 1956.30 L3001.43 1982.66 L3133.84 2030.43 L3266.13 2030.43 L3398.55 2030.43 L3530.96 2030.43 L3663.25 2030.43" stroke-linejoin="round" style="fill:none;stroke:#55752F;stroke-width:8.64"/>
	<circle cx="354.05" cy="2030.43" r="26.35" style="fill:#55752F"/>
	<circle cx="354.05" cy="2030.43" r="22.03" style="fill:none;stroke:#55752F;stroke-width:8.64"/>
	<circle cx="486.46" cy="2030.43" r="26.35" style="fill:#55752F"/>
	<circle cx="486.46" cy="2030.43" r="22.03" style="fill:none;stroke:#55752F;stroke-width:8.64"/>
	<circle cx="618.87" cy="2030.43" r="26.35" style="fill:#55752F"/>
	<circle cx="618.87" cy="2030.43" r="22.03" style="fill:none;stroke:#55752F;stroke-width:8.64"/>
	<circle cx="751.16" cy="2030.43" r="26.35" style="fill:#55752F"/>
	<circle cx="751.16" cy="2030.43" r="22.03" style="fill:none;stroke:#55752F;stroke-width:8.64"/>
	<circle cx="1015.86" cy="2027.95" r="26.35" style="fill:#55752F"/>
	<circle cx="1015.86" cy="2027.95" r="22.03" style="fill:none;stroke:#55752F;stroke-width:8.64"/>
	<circle cx="1148.28" cy="1999.86" r="26.35" style="fill:#55752F"/>
	<circle cx="1148.28" cy="1999.86" r="22.03" style="fill:none;stroke:#55752F;stroke-width:8.64"/>
	<circle cx="1280.69" cy="1868.93" r="26.35" style="fill:#55752F"/>
	<circle cx="1280.69" cy="1868.93" r="22.03" style="fill:none;stroke:#55752F;stroke-width:8.64"/>
	<circle cx="1412.98" cy="1537.52" r="26.35" style="fill:#55752F"/>
	<circle cx="1412.98" cy="1537.52" r="22.03" style="fill:none;stroke:#55752F;stroke-width:8.64"/>
	<circle cx="1545.39" cy="1224.05" r="26.35" style="fill:#55752F"/>
	<circle cx="1545.39" cy="1224.05" r="22.03" style="fill:none;stroke:#55752F;stroke-width:8.64"/>
	<circle cx="1677.80" cy="1191.01" r="26.35" style="fill:#55752F"/>
	<circle cx="1677.80" cy="1191.01" r="22.03" style="fill:none;stroke:#55752F;stroke-width:8.64"/>
	<circle cx="1810.09" cy="1295.70" r="26.35" style="fill:#55752F"/>
	<circle cx="1810.09" cy="1295.70" r="22.03" style="fill:none;stroke:#55752F;stroke-width:8.64"/>
	<circle cx="1942.50" cy="1453.61" r="26.35" style="fill:#55752F"/>
	<circle cx="1942.50" cy="1453.61" r="22.03" style="fill:none;stroke:#55752F;stroke-width:8.64"/>
	<circle cx="2074.92" cy="1592.59" r="26.35" style="fill:#55752F"/>
	<circle cx="2074.92" cy="1592.59" r="22.03" style="fill:none;stroke:#55752F;stroke-width:8.64"/>
	<circle cx="2207.20" cy="1716.59" r="26.35" style="fill:#55752F"/>
	<circle cx="2207.20" cy="1716.59" r="22.03" style="fill:none;stroke:#55752F;stroke-width:8.64"/>
	<circle cx="2339.62" cy="1764.61" r="26.35" style="fill:#55752F"/>
	<circle cx="2339.62" cy="1764.61" r="22.03" style="fill:none;stroke:#55752F;stroke-width:8.64"/>
	<circle cx="2472.03" cy="1822.52" r="26.35" style="fill:#55752F"/>
	<circle cx="2472.03" cy="1822.52" r="22.03" style="fill:none;stroke:#55752F;stroke-width:8.64"/>
	<circle cx="2604.32" cy="1872.02" r="26.35" style="fill:#55752F"/>
	<circle cx="2604.32" cy="1872.02" r="22.03" style="fill:none;stroke:#55752F;stroke-width:8.64"/>
	<circle cx="2736.73" cy="1921.53" r="26.35" style="fill:#55752F"/>
	<circle cx="2736.73" cy="1921.53" r="22.03" style="fill:none;stroke:#55752F;stroke-width:8.64"/>
	<circle cx="2869.02" cy="1956.30" r="26.35" style="fill:#55752F"/>
	<circle cx="2869.02" cy="1956.30" r="22.03" style="fill:none;stroke:#55752F;stroke-width:8.64"/>
	<circle cx="3001.43" cy="1982.66" r="26.35" style="fill:#55752F"/>
	<circle cx="3001.43" cy="1982.66" r="22.03" style="fill:none;stroke:#55752F;stroke-width:8.64"/>
	<circle cx="3133.84" cy="2030.43" r="26.35" style="fill:#55752F"/>
	<circle cx="3133.84" cy="2030.43" r="22.03" style="fill:none;stroke:#55752F;stroke-width:8.64"/>
	<circle cx="3266.13" cy="2030.43" r="26.35" style="fill:#55752F"/>
	<circle cx="3266.13" cy="2030.43" r="22.03" style="fill:none;stroke:#55752F;stroke-width:8.64"/>
	<circle cx="3398.55" cy="2030.43" r="26.35" style="fill:#55752F"/>
	<circle cx="3398.55" cy="2030.43" r="22.03" style="fill:none;stroke:#55752F;stroke-width:8.64"/>
	<circle cx="3530.96" cy="2030.43" r="26.35" style="fill:#55752F"/>
	<circle cx="3530.96" cy="2030.43" r="22.03" style="fill:none;stroke:#55752F;stroke-width:8.64"/>
	<circle cx="3663.25" cy="2030.43" r="26.35" style="fill:#55752F"/>
	<circle cx="3663.25" cy="2030.43" r="22.03" style="fill:none;stroke:#55752F;stroke-width:8.64"/>
	<line x1="290.81" y1="2093.67" x2="290.81" y2="100.86" style="stroke:#000000;stroke-width:5.76"/>
	<line x1="290.81" y1="2030.31" x2="250.84" y2="2030.31" style="stroke:#000000;stroke-width:5.76"/>
	<text x="200.73" y="2030.31" style="font-family:'Helvetica';font-size:99.99px;fill:#000000" transform="rotate(-90 200.73,2030.31)" text-anchor="middle">0</text>
	<line x1="290.81" y1="1679.34" x2="250.84" y2="1679.34" style="stroke:#000000;stroke-width:5.76"/>
	<text x="200.73" y="1679.34" style="font-family:'Helvetica';font-size:99.99px;fill:#000000" transform="rotate(-90 200.73,1679.34)" text-anchor="middle">1000</text>
	<line x1="290.81" y1="1328.25" x2="250.84" y2="1328.25" style="stroke:#000000;stroke-width:5.76"/>
	<text x="200.73" y="1328.25" style="font-family:'Helvetica';font-size:99.99px;fill:#000000" transform="rotate(-90 200.73,1328.25)" text-anchor="middle">2000</text>
	<line x1="290.81" y1="977.16" x2="250.84" y2="977.16" style="stroke:#000000;stroke-width:5.76"/>
	<text x="200.73" y="977.16" style="font-family:'Helvetica';font-size:99.99px;fill:#000000" transform="rotate(-90 200.73,977.16)" text-anchor="middle">3000</text>
	<line x1="290.81" y1="626.19" x2="250.84" y2="626.19" style="stroke:#000000;stroke-width:5.76"/>
	<text x="200.73" y="626.19" style="font-family:'Helvetica';font-size:99.99px;fill:#000000" transform="rotate(-90 200.73,626.19)" text-anchor="middle">4000</text>
	<line x1="290.81" y1="275.10" x2="250.84" y2="275.10" style="stroke:#000000;stroke-width:5.76"/>
	<text x="200.73" y="275.10" style="font-family:'Helvetica';font-size:99.99px;fill:#000000" transform="rotate(-90 200.73,275.10)" text-anchor="middle">5000</text>
	<line x1="290.81" y1="2093.67" x2="3859.02" y2="2093.67" style="stroke:#000000;stroke-width:5.76"/>
	<line x1="354.17" y1="2093.67" x2="354.17" y2="2133.64" style="stroke:#000000;stroke-width:5.76"/>
	<text x="354.17" y="2223.62" style="font-family:'Helvetica';font-size:99.99px;fill:#000000" text-anchor="middle">01feb2020</text>
	<line x1="1488.71" y1="2093.67" x2="1488.71" y2="2133.64" style="stroke:#000000;stroke-width:5.76"/>
	<text x="1488.71" y="2223.62" style="font-family:'Helvetica';font-size:99.99px;fill:#000000" text-anchor="middle">01apr2020</text>
	<line x1="2642.19" y1="2093.67" x2="2642.19" y2="2133.64" style="stroke:#000000;stroke-width:5.76"/>
	<text x="2642.19" y="2223.62" style="font-family:'Helvetica';font-size:99.99px;fill:#000000" text-anchor="middle">01jun2020</text>
	<line x1="3795.66" y1="2093.67" x2="3795.66" y2="2133.64" style="stroke:#000000;stroke-width:5.76"/>
	<text x="3795.66" y="2223.62" style="font-family:'Helvetica';font-size:99.99px;fill:#000000" text-anchor="middle">01aug2020</text>
	<text x="2074.92" y="2333.64" style="font-family:'Helvetica';font-size:99.99px;fill:#000000" text-anchor="middle">startdate</text>
	<rect x="662.56" y="2418.27" width="2824.72" height="326.34" style="fill:#FFFFFF"/>
	<rect x="665.44" y="2421.15" width="2818.96" height="320.58" style="fill:none;stroke:#000000;stroke-width:5.76"/>
	<line x1="705.75" y1="2511.46" x2="1080.21" y2="2511.46" style="stroke:#1A476F;stroke-width:8.64"/>
	<circle cx="892.98" cy="2511.46" r="26.35" style="fill:#1A476F"/>
	<circle cx="892.98" cy="2511.46" r="22.03" style="fill:none;stroke:#1A476F;stroke-width:8.64"/>
	<line x1="2018.12" y1="2511.46" x2="2392.46" y2="2511.46" style="stroke:#90353B;stroke-width:8.64"/>
	<circle cx="2205.22" cy="2511.46" r="26.35" style="fill:#90353B"/>
	<circle cx="2205.22" cy="2511.46" r="22.03" style="fill:none;stroke:#90353B;stroke-width:8.64"/>
	<line x1="705.75" y1="2651.43" x2="1080.21" y2="2651.43" style="stroke:#55752F;stroke-width:8.64"/>
	<circle cx="892.98" cy="2651.43" r="26.35" style="fill:#55752F"/>
	<circle cx="892.98" cy="2651.43" r="22.03" style="fill:none;stroke:#55752F;stroke-width:8.64"/>
	<text x="1140.23" y="2546.49" style="font-family:'Helvetica';font-size:99.99px;fill:#000000">cov_admissions</text>
	<text x="2452.48" y="2546.49" style="font-family:'Helvetica';font-size:99.99px;fill:#000000">conf_cov_admissions</text>
	<text x="1140.23" y="2686.46" style="font-family:'Helvetica';font-size:99.99px;fill:#000000">covdeaths</text>
</svg>
