<?xml version="1.0" encoding="UTF-8" standalone="no"?>
<!-- This is a Stata 16.1 generated SVG file (http://www.stata.com) -->

<svg version="1.1" width="5.50in" height="8.00in" viewBox="0 0 3960 5760" xmlns="http://www.w3.org/2000/svg" xmlns:xlink="http://www.w3.org/1999/xlink">
	<desc>Stata Graph - Graph</desc>
	<rect x="0" y="0" width="3960" height="5760" style="fill:#EAF2F3;stroke:none"/>
	<rect x="0.00" y="0.00" width="3960.00" height="5760.00" style="fill:#EAF2F3"/>
	<rect x="3.96" y="3.96" width="3952.08" height="5752.08" style="fill:none;stroke:#EAF2F3;stroke-width:7.92"/>
	<rect x="138.60" y="138.60" width="3682.80" height="5084.10" style="fill:#FFFFFF"/>
	<rect x="142.56" y="142.56" width="3674.88" height="5076.18" style="fill:none;stroke:#FFFFFF;stroke-width:7.92"/>
	<line x1="1571.22" y1="5222.70" x2="1571.22" y2="5143.50" style="stroke:#C10534;stroke-width:11.88"/>
	<line x1="1571.22" y1="5103.90" x2="1571.22" y2="5024.70" style="stroke:#C10534;stroke-width:11.88"/>
	<line x1="1571.22" y1="4985.10" x2="1571.22" y2="4905.90" style="stroke:#C10534;stroke-width:11.88"/>
	<line x1="1571.22" y1="4866.30" x2="1571.22" y2="4786.92" style="stroke:#C10534;stroke-width:11.88"/>
	<line x1="1571.22" y1="4747.32" x2="1571.22" y2="4668.12" style="stroke:#C10534;stroke-width:11.88"/>
	<line x1="1571.22" y1="4628.52" x2="1571.22" y2="4549.32" style="stroke:#C10534;stroke-width:11.88"/>
	<line x1="1571.22" y1="4509.72" x2="1571.22" y2="4430.52" style="stroke:#C10534;stroke-width:11.88"/>
	<line x1="1571.22" y1="4390.92" x2="1571.22" y2="4311.72" style="stroke:#C10534;stroke-width:11.88"/>
	<line x1="1571.22" y1="4272.12" x2="1571.22" y2="4192.92" style="stroke:#C10534;stroke-width:11.88"/>
	<line x1="1571.22" y1="4153.14" x2="1571.22" y2="4073.94" style="stroke:#C10534;stroke-width:11.88"/>
	<line x1="1571.22" y1="4034.34" x2="1571.22" y2="3955.14" style="stroke:#C10534;stroke-width:11.88"/>
	<line x1="1571.22" y1="3915.54" x2="1571.22" y2="3836.34" style="stroke:#C10534;stroke-width:11.88"/>
	<line x1="1571.22" y1="3796.74" x2="1571.22" y2="3717.54" style="stroke:#C10534;stroke-width:11.88"/>
	<line x1="1571.22" y1="3677.94" x2="1571.22" y2="3598.74" style="stroke:#C10534;stroke-width:11.88"/>
	<line x1="1571.22" y1="3559.14" x2="1571.22" y2="3479.76" style="stroke:#C10534;stroke-width:11.88"/>
	<line x1="1571.22" y1="3440.16" x2="1571.22" y2="3360.96" style="stroke:#C10534;stroke-width:11.88"/>
	<line x1="1571.22" y1="3321.36" x2="1571.22" y2="3242.16" style="stroke:#C10534;stroke-width:11.88"/>
	<line x1="1571.22" y1="3202.56" x2="1571.22" y2="3123.36" style="stroke:#C10534;stroke-width:11.88"/>
	<line x1="1571.22" y1="3083.76" x2="1571.22" y2="3004.56" style="stroke:#C10534;stroke-width:11.88"/>
	<line x1="1571.22" y1="2964.96" x2="1571.22" y2="2885.76" style="stroke:#C10534;stroke-width:11.88"/>
	<line x1="1571.22" y1="2845.98" x2="1571.22" y2="2766.78" style="stroke:#C10534;stroke-width:11.88"/>
	<line x1="1571.22" y1="2727.18" x2="1571.22" y2="2647.98" style="stroke:#C10534;stroke-width:11.88"/>
	<line x1="1571.22" y1="2608.38" x2="1571.22" y2="2529.18" style="stroke:#C10534;stroke-width:11.88"/>
	<line x1="1571.22" y1="2489.58" x2="1571.22" y2="2410.38" style="stroke:#C10534;stroke-width:11.88"/>
	<line x1="1571.22" y1="2370.78" x2="1571.22" y2="2291.58" style="stroke:#C10534;stroke-width:11.88"/>
	<line x1="1571.22" y1="2251.98" x2="1571.22" y2="2172.60" style="stroke:#C10534;stroke-width:11.88"/>
	<line x1="1571.22" y1="2133.00" x2="1571.22" y2="2053.80" style="stroke:#C10534;stroke-width:11.88"/>
	<line x1="1571.22" y1="2014.20" x2="1571.22" y2="1935.00" style="stroke:#C10534;stroke-width:11.88"/>
	<line x1="1571.22" y1="1895.40" x2="1571.22" y2="1816.20" style="stroke:#C10534;stroke-width:11.88"/>
	<line x1="1571.22" y1="1776.60" x2="1571.22" y2="1697.40" style="stroke:#C10534;stroke-width:11.88"/>
	<line x1="1571.22" y1="1657.80" x2="1571.22" y2="1578.42" style="stroke:#C10534;stroke-width:11.88"/>
	<line x1="1571.22" y1="1538.82" x2="1571.22" y2="1459.62" style="stroke:#C10534;stroke-width:11.88"/>
	<line x1="1571.22" y1="1420.02" x2="1571.22" y2="1340.82" style="stroke:#C10534;stroke-width:11.88"/>
	<line x1="1571.22" y1="1301.22" x2="1571.22" y2="1222.02" style="stroke:#C10534;stroke-width:11.88"/>
	<line x1="1571.22" y1="1182.42" x2="1571.22" y2="1103.22" style="stroke:#C10534;stroke-width:11.88"/>
	<line x1="1571.22" y1="1063.62" x2="1571.22" y2="984.42" style="stroke:#C10534;stroke-width:11.88"/>
	<line x1="1571.22" y1="944.64" x2="1571.22" y2="865.44" style="stroke:#C10534;stroke-width:11.88"/>
	<line x1="1571.22" y1="825.84" x2="1571.22" y2="746.64" style="stroke:#C10534;stroke-width:11.88"/>
	<line x1="1571.22" y1="707.04" x2="1571.22" y2="627.84" style="stroke:#C10534;stroke-width:11.88"/>
	<line x1="1571.22" y1="588.24" x2="1571.22" y2="509.04" style="stroke:#C10534;stroke-width:11.88"/>
	<line x1="1571.22" y1="469.44" x2="1571.22" y2="390.24" style="stroke:#C10534;stroke-width:11.88"/>
	<line x1="1571.22" y1="350.64" x2="1571.22" y2="271.26" style="stroke:#C10534;stroke-width:11.88"/>
	<line x1="1571.22" y1="231.66" x2="1571.22" y2="152.46" style="stroke:#C10534;stroke-width:11.88"/>
	<circle cx="2165.76" cy="733.68" r="36.18" style="fill:#000000"/>
	<circle cx="2165.76" cy="733.68" r="30.24" style="fill:none;stroke:#000000;stroke-width:11.88"/>
	<circle cx="2101.86" cy="903.06" r="36.18" style="fill:#000000"/>
	<circle cx="2101.86" cy="903.06" r="30.24" style="fill:none;stroke:#000000;stroke-width:11.88"/>
	<circle cx="2035.80" cy="1072.26" r="36.18" style="fill:#000000"/>
	<circle cx="2035.80" cy="1072.26" r="30.24" style="fill:none;stroke:#000000;stroke-width:11.88"/>
	<circle cx="2198.16" cy="1580.22" r="36.18" style="fill:#000000"/>
	<circle cx="2198.16" cy="1580.22" r="30.24" style="fill:none;stroke:#000000;stroke-width:11.88"/>
	<circle cx="2046.42" cy="1749.60" r="36.18" style="fill:#000000"/>
	<circle cx="2046.42" cy="1749.60" r="30.24" style="fill:none;stroke:#000000;stroke-width:11.88"/>
	<circle cx="2205.72" cy="2257.38" r="36.18" style="fill:#000000"/>
	<circle cx="2205.72" cy="2257.38" r="30.24" style="fill:none;stroke:#000000;stroke-width:11.88"/>
	<circle cx="2066.40" cy="2426.76" r="36.18" style="fill:#000000"/>
	<circle cx="2066.40" cy="2426.76" r="30.24" style="fill:none;stroke:#000000;stroke-width:11.88"/>
	<circle cx="2386.80" cy="2934.72" r="36.18" style="fill:#000000"/>
	<circle cx="2386.80" cy="2934.72" r="30.24" style="fill:none;stroke:#000000;stroke-width:11.88"/>
	<circle cx="1910.88" cy="3103.92" r="36.18" style="fill:#000000"/>
	<circle cx="1910.88" cy="3103.92" r="30.24" style="fill:none;stroke:#000000;stroke-width:11.88"/>
	<circle cx="1584.72" cy="3611.88" r="36.18" style="fill:#000000"/>
	<circle cx="1584.72" cy="3611.88" r="30.24" style="fill:none;stroke:#000000;stroke-width:11.88"/>
	<circle cx="2099.52" cy="3781.26" r="36.18" style="fill:#000000"/>
	<circle cx="2099.52" cy="3781.26" r="30.24" style="fill:none;stroke:#000000;stroke-width:11.88"/>
	<circle cx="2352.24" cy="4289.04" r="36.18" style="fill:#000000"/>
	<circle cx="2352.24" cy="4289.04" r="30.24" style="fill:none;stroke:#000000;stroke-width:11.88"/>
	<circle cx="1895.76" cy="4458.42" r="36.18" style="fill:#000000"/>
	<circle cx="1895.76" cy="4458.42" r="30.24" style="fill:none;stroke:#000000;stroke-width:11.88"/>
	<circle cx="1649.52" cy="4627.80" r="36.18" style="fill:#000000"/>
	<circle cx="1649.52" cy="4627.80" r="30.24" style="fill:none;stroke:#000000;stroke-width:11.88"/>
	<line x1="1946.16" y1="733.68" x2="2385.72" y2="733.68" style="stroke:#000000;stroke-width:11.88"/>
	<line x1="2385.72" y1="763.92" x2="2385.72" y2="703.44" stroke-linecap="round" style="stroke:#000000;stroke-width:11.88"/>
	<line x1="1946.16" y1="763.92" x2="1946.16" y2="703.44" stroke-linecap="round" style="stroke:#000000;stroke-width:11.88"/>
	<line x1="1881.54" y1="902.88" x2="2322.36" y2="902.88" style="stroke:#000000;stroke-width:11.88"/>
	<line x1="2322.36" y1="933.12" x2="2322.36" y2="872.64" stroke-linecap="round" style="stroke:#000000;stroke-width:11.88"/>
	<line x1="1881.54" y1="933.12" x2="1881.54" y2="872.64" stroke-linecap="round" style="stroke:#000000;stroke-width:11.88"/>
	<line x1="1815.48" y1="1072.26" x2="2256.30" y2="1072.26" style="stroke:#000000;stroke-width:11.88"/>
	<line x1="2256.30" y1="1102.50" x2="2256.30" y2="1042.02" stroke-linecap="round" style="stroke:#000000;stroke-width:11.88"/>
	<line x1="1815.48" y1="1102.50" x2="1815.48" y2="1042.02" stroke-linecap="round" style="stroke:#000000;stroke-width:11.88"/>
	<line x1="1849.50" y1="1580.22" x2="2547.18" y2="1580.22" style="stroke:#000000;stroke-width:11.88"/>
	<line x1="2547.18" y1="1610.46" x2="2547.18" y2="1549.98" stroke-linecap="round" style="stroke:#000000;stroke-width:11.88"/>
	<line x1="1849.50" y1="1610.46" x2="1849.50" y2="1549.98" stroke-linecap="round" style="stroke:#000000;stroke-width:11.88"/>
	<line x1="1762.92" y1="1749.42" x2="2329.92" y2="1749.42" style="stroke:#000000;stroke-width:11.88"/>
	<line x1="2329.92" y1="1779.66" x2="2329.92" y2="1719.18" stroke-linecap="round" style="stroke:#000000;stroke-width:11.88"/>
	<line x1="1762.92" y1="1779.66" x2="1762.92" y2="1719.18" stroke-linecap="round" style="stroke:#000000;stroke-width:11.88"/>
	<line x1="1790.10" y1="2257.38" x2="2621.52" y2="2257.38" style="stroke:#000000;stroke-width:11.88"/>
	<line x1="2621.52" y1="2287.62" x2="2621.52" y2="2227.14" stroke-linecap="round" style="stroke:#000000;stroke-width:11.88"/>
	<line x1="1790.10" y1="2287.62" x2="1790.10" y2="2227.14" stroke-linecap="round" style="stroke:#000000;stroke-width:11.88"/>
	<line x1="1807.38" y1="2426.76" x2="2325.60" y2="2426.76" style="stroke:#000000;stroke-width:11.88"/>
	<line x1="2325.60" y1="2457.00" x2="2325.60" y2="2396.52" stroke-linecap="round" style="stroke:#000000;stroke-width:11.88"/>
	<line x1="1807.38" y1="2457.00" x2="1807.38" y2="2396.52" stroke-linecap="round" style="stroke:#000000;stroke-width:11.88"/>
	<line x1="2066.04" y1="2934.54" x2="2707.74" y2="2934.54" style="stroke:#000000;stroke-width:11.88"/>
	<line x1="2707.74" y1="2964.78" x2="2707.74" y2="2904.30" stroke-linecap="round" style="stroke:#000000;stroke-width:11.88"/>
	<line x1="2066.04" y1="2964.78" x2="2066.04" y2="2904.30" stroke-linecap="round" style="stroke:#000000;stroke-width:11.88"/>
	<line x1="1590.30" y1="3103.92" x2="2231.82" y2="3103.92" style="stroke:#000000;stroke-width:11.88"/>
	<line x1="2231.82" y1="3134.16" x2="2231.82" y2="3073.68" stroke-linecap="round" style="stroke:#000000;stroke-width:11.88"/>
	<line x1="1590.30" y1="3134.16" x2="1590.30" y2="3073.68" stroke-linecap="round" style="stroke:#000000;stroke-width:11.88"/>
	<line x1="809.64" y1="3611.88" x2="2359.98" y2="3611.88" style="stroke:#000000;stroke-width:11.88"/>
	<line x1="2359.98" y1="3642.12" x2="2359.98" y2="3581.64" stroke-linecap="round" style="stroke:#000000;stroke-width:11.88"/>
	<line x1="809.64" y1="3642.12" x2="809.64" y2="3581.64" stroke-linecap="round" style="stroke:#000000;stroke-width:11.88"/>
	<line x1="1869.84" y1="3781.08" x2="2329.20" y2="3781.08" style="stroke:#000000;stroke-width:11.88"/>
	<line x1="2329.20" y1="3811.32" x2="2329.20" y2="3750.84" stroke-linecap="round" style="stroke:#000000;stroke-width:11.88"/>
	<line x1="1869.84" y1="3811.32" x2="1869.84" y2="3750.84" stroke-linecap="round" style="stroke:#000000;stroke-width:11.88"/>
	<line x1="1902.78" y1="4289.04" x2="2801.88" y2="4289.04" style="stroke:#000000;stroke-width:11.88"/>
	<line x1="2801.88" y1="4319.28" x2="2801.88" y2="4258.80" stroke-linecap="round" style="stroke:#000000;stroke-width:11.88"/>
	<line x1="1902.78" y1="4319.28" x2="1902.78" y2="4258.80" stroke-linecap="round" style="stroke:#000000;stroke-width:11.88"/>
	<line x1="1578.42" y1="4458.24" x2="2213.10" y2="4458.24" style="stroke:#000000;stroke-width:11.88"/>
	<line x1="2213.10" y1="4488.48" x2="2213.10" y2="4428.00" stroke-linecap="round" style="stroke:#000000;stroke-width:11.88"/>
	<line x1="1578.42" y1="4488.48" x2="1578.42" y2="4428.00" stroke-linecap="round" style="stroke:#000000;stroke-width:11.88"/>
	<line x1="1332.36" y1="4627.62" x2="1966.86" y2="4627.62" style="stroke:#000000;stroke-width:11.88"/>
	<line x1="1966.86" y1="4657.86" x2="1966.86" y2="4597.38" stroke-linecap="round" style="stroke:#000000;stroke-width:11.88"/>
	<line x1="1332.36" y1="4657.86" x2="1332.36" y2="4597.38" stroke-linecap="round" style="stroke:#000000;stroke-width:11.88"/>
	<text x="467.10" y="1609.12" style="font-family:'Helvetica';font-size:82.44px;fill:#000000">&lt;60</text>
	<text x="467.10" y="1778.32" style="font-family:'Helvetica';font-size:82.44px;fill:#000000">60+</text>
	<text x="467.10" y="2286.28" style="font-family:'Helvetica';font-size:82.44px;fill:#000000">Males</text>
	<text x="467.10" y="2455.66" style="font-family:'Helvetica';font-size:82.44px;fill:#000000">Females</text>
	<text x="467.10" y="2963.44" style="font-family:'Helvetica';font-size:82.44px;fill:#000000">Black</text>
	<text x="467.10" y="3132.82" style="font-family:'Helvetica';font-size:82.44px;fill:#000000">Not Black</text>
	<text x="467.10" y="3640.78" style="font-family:'Helvetica';font-size:82.44px;fill:#000000">None</text>
	<text x="467.10" y="3809.98" style="font-family:'Helvetica';font-size:82.44px;fill:#000000">1 or more</text>
	<text x="467.10" y="4317.94" style="font-family:'Helvetica';font-size:82.44px;fill:#000000">0-59</text>
	<text x="467.10" y="4487.14" style="font-family:'Helvetica';font-size:82.44px;fill:#000000">60-89</text>
	<text x="467.10" y="4656.52" style="font-family:'Helvetica';font-size:82.44px;fill:#000000">90+</text>
	<text x="283.50" y="762.58" style="font-family:'Helvetica';font-size:82.44px;fill:#000000">Age-sex adjusted</text>
	<text x="283.50" y="931.78" style="font-family:'Helvetica';font-size:82.44px;fill:#000000">+ IMD/ethnicity</text>
	<text x="283.50" y="1101.16" style="font-family:'Helvetica';font-size:82.44px;fill:#000000">(+ obesity/smoking/comorbidities)</text>
	<text x="283.50" y="1439.74" style="font-family:'Helvetica';font-size:82.44px;fill:#000000">By age</text>
	<text x="283.50" y="2116.90" style="font-family:'Helvetica';font-size:82.44px;fill:#000000">By sex</text>
	<text x="283.50" y="2794.24" style="font-family:'Helvetica';font-size:82.44px;fill:#000000">By ethnicity*</text>
	<text x="283.50" y="3471.40" style="font-family:'Helvetica';font-size:82.44px;fill:#000000">By comorbidities**</text>
	<text x="283.50" y="4148.56" style="font-family:'Helvetica';font-size:82.44px;fill:#000000">By epidemic period (days)***</text>
	<text x="2915.64" y="1439.74" style="font-family:'Helvetica';font-size:82.44px;fill:#000000">(p-interaction 0.507)</text>
	<text x="2915.64" y="2116.90" style="font-family:'Helvetica';font-size:82.44px;fill:#000000">(p-interaction 0.576)</text>
	<text x="2915.64" y="2794.24" style="font-family:'Helvetica';font-size:82.44px;fill:#000000">(p-interaction 0.044)</text>
	<text x="2915.64" y="3471.40" style="font-family:'Helvetica';font-size:82.44px;fill:#000000">(p-interaction 0.212)</text>
	<text x="2915.64" y="4148.56" style="font-family:'Helvetica';font-size:82.44px;fill:#000000">(p-interaction 0.258)</text>
	<text x="2915.64" y="762.58" style="font-family:'Helvetica';font-size:82.44px;fill:#000000">2.90 (1.96-4.30)</text>
	<text x="2915.64" y="931.78" style="font-family:'Helvetica';font-size:82.44px;fill:#000000">2.59 (1.74-3.84)</text>
	<text x="2915.64" y="1101.16" style="font-family:'Helvetica';font-size:82.44px;fill:#000000">2.30 (1.55-3.41)</text>
	<text x="2915.64" y="1609.12" style="font-family:'Helvetica';font-size:82.44px;fill:#000000">3.07 (1.65-5.74)</text>
	<text x="2915.64" y="1778.32" style="font-family:'Helvetica';font-size:82.44px;fill:#000000">2.34 (1.41-3.89)</text>
	<text x="2915.64" y="2286.28" style="font-family:'Helvetica';font-size:82.44px;fill:#000000">3.11 (1.48-6.55)</text>
	<text x="2915.64" y="2455.66" style="font-family:'Helvetica';font-size:82.44px;fill:#000000">2.43 (1.53-3.86)</text>
	<text x="2915.64" y="2963.44" style="font-family:'Helvetica';font-size:82.44px;fill:#000000">4.31 (2.42-7.65)</text>
	<text x="2915.64" y="3132.82" style="font-family:'Helvetica';font-size:82.44px;fill:#000000">1.84 (1.03-3.26)</text>
	<text x="2915.64" y="3640.78" style="font-family:'Helvetica';font-size:82.44px;fill:#000000">1.02 (0.26-4.10)</text>
	<text x="2915.64" y="3809.98" style="font-family:'Helvetica';font-size:82.44px;fill:#000000">2.57 (1.71-3.88)</text>
	<text x="2915.64" y="4317.94" style="font-family:'Helvetica';font-size:82.44px;fill:#000000">4.05 (1.81-9.05)</text>
	<text x="2915.64" y="4487.14" style="font-family:'Helvetica';font-size:82.44px;fill:#000000">1.79 (1.01-3.15)</text>
	<text x="2915.64" y="4656.52" style="font-family:'Helvetica';font-size:82.44px;fill:#000000">1.15 (0.65-2.03)</text>
	<line x1="138.60" y1="5222.70" x2="3821.40" y2="5222.70" style="stroke:#000000;stroke-width:7.92"/>
	<line x1="1183.86" y1="5222.70" x2="1183.86" y2="5277.60" style="stroke:#000000;stroke-width:7.92"/>
	<text x="1183.86" y="5401.31" style="font-family:'Helvetica';font-size:137.52px;fill:#000000" text-anchor="middle">.5</text>
	<line x1="1571.22" y1="5222.70" x2="1571.22" y2="5277.60" style="stroke:#000000;stroke-width:7.92"/>
	<text x="1571.22" y="5401.31" style="font-family:'Helvetica';font-size:137.52px;fill:#000000" text-anchor="middle">1</text>
	<line x1="1958.58" y1="5222.70" x2="1958.58" y2="5277.60" style="stroke:#000000;stroke-width:7.92"/>
	<text x="1958.58" y="5401.31" style="font-family:'Helvetica';font-size:137.52px;fill:#000000" text-anchor="middle">2</text>
	<line x1="2345.76" y1="5222.70" x2="2345.76" y2="5277.60" style="stroke:#000000;stroke-width:7.92"/>
	<text x="2345.76" y="5401.31" style="font-family:'Helvetica';font-size:137.52px;fill:#000000" text-anchor="middle">4</text>
	<text x="1980.00" y="5552.51" style="font-family:'Helvetica';font-size:137.52px;fill:#000000" text-anchor="middle">Hazard ratio and 95% CI</text>
</svg>
