<?xml version="1.0" encoding="UTF-8" standalone="no"?>
<!-- This is a Stata 16.1 generated SVG file (http://www.stata.com) -->

<svg version="1.1" width="5.50in" height="8.00in" viewBox="0 0 3960 5760" xmlns="http://www.w3.org/2000/svg" xmlns:xlink="http://www.w3.org/1999/xlink">
	<desc>Stata Graph - Graph</desc>
	<rect x="0" y="0" width="3960" height="5760" style="fill:#EAF2F3;stroke:none"/>
	<rect x="0.00" y="0.00" width="3960.00" height="5760.00" style="fill:#EAF2F3"/>
	<rect x="3.96" y="3.96" width="3952.08" height="5752.08" style="fill:none;stroke:#EAF2F3;stroke-width:7.92"/>
	<rect x="138.60" y="138.60" width="3682.80" height="5084.10" style="fill:#FFFFFF"/>
	<rect x="142.56" y="142.56" width="3674.88" height="5076.18" style="fill:none;stroke:#FFFFFF;stroke-width:7.92"/>
	<line x1="1856.52" y1="5222.70" x2="1856.52" y2="5143.50" style="stroke:#C10534;stroke-width:11.88"/>
	<line x1="1856.52" y1="5103.90" x2="1856.52" y2="5024.70" style="stroke:#C10534;stroke-width:11.88"/>
	<line x1="1856.52" y1="4985.10" x2="1856.52" y2="4905.90" style="stroke:#C10534;stroke-width:11.88"/>
	<line x1="1856.52" y1="4866.30" x2="1856.52" y2="4786.92" style="stroke:#C10534;stroke-width:11.88"/>
	<line x1="1856.52" y1="4747.32" x2="1856.52" y2="4668.12" style="stroke:#C10534;stroke-width:11.88"/>
	<line x1="1856.52" y1="4628.52" x2="1856.52" y2="4549.32" style="stroke:#C10534;stroke-width:11.88"/>
	<line x1="1856.52" y1="4509.72" x2="1856.52" y2="4430.52" style="stroke:#C10534;stroke-width:11.88"/>
	<line x1="1856.52" y1="4390.92" x2="1856.52" y2="4311.72" style="stroke:#C10534;stroke-width:11.88"/>
	<line x1="1856.52" y1="4272.12" x2="1856.52" y2="4192.92" style="stroke:#C10534;stroke-width:11.88"/>
	<line x1="1856.52" y1="4153.14" x2="1856.52" y2="4073.94" style="stroke:#C10534;stroke-width:11.88"/>
	<line x1="1856.52" y1="4034.34" x2="1856.52" y2="3955.14" style="stroke:#C10534;stroke-width:11.88"/>
	<line x1="1856.52" y1="3915.54" x2="1856.52" y2="3836.34" style="stroke:#C10534;stroke-width:11.88"/>
	<line x1="1856.52" y1="3796.74" x2="1856.52" y2="3717.54" style="stroke:#C10534;stroke-width:11.88"/>
	<line x1="1856.52" y1="3677.94" x2="1856.52" y2="3598.74" style="stroke:#C10534;stroke-width:11.88"/>
	<line x1="1856.52" y1="3559.14" x2="1856.52" y2="3479.76" style="stroke:#C10534;stroke-width:11.88"/>
	<line x1="1856.52" y1="3440.16" x2="1856.52" y2="3360.96" style="stroke:#C10534;stroke-width:11.88"/>
	<line x1="1856.52" y1="3321.36" x2="1856.52" y2="3242.16" style="stroke:#C10534;stroke-width:11.88"/>
	<line x1="1856.52" y1="3202.56" x2="1856.52" y2="3123.36" style="stroke:#C10534;stroke-width:11.88"/>
	<line x1="1856.52" y1="3083.76" x2="1856.52" y2="3004.56" style="stroke:#C10534;stroke-width:11.88"/>
	<line x1="1856.52" y1="2964.96" x2="1856.52" y2="2885.76" style="stroke:#C10534;stroke-width:11.88"/>
	<line x1="1856.52" y1="2845.98" x2="1856.52" y2="2766.78" style="stroke:#C10534;stroke-width:11.88"/>
	<line x1="1856.52" y1="2727.18" x2="1856.52" y2="2647.98" style="stroke:#C10534;stroke-width:11.88"/>
	<line x1="1856.52" y1="2608.38" x2="1856.52" y2="2529.18" style="stroke:#C10534;stroke-width:11.88"/>
	<line x1="1856.52" y1="2489.58" x2="1856.52" y2="2410.38" style="stroke:#C10534;stroke-width:11.88"/>
	<line x1="1856.52" y1="2370.78" x2="1856.52" y2="2291.58" style="stroke:#C10534;stroke-width:11.88"/>
	<line x1="1856.52" y1="2251.98" x2="1856.52" y2="2172.60" style="stroke:#C10534;stroke-width:11.88"/>
	<line x1="1856.52" y1="2133.00" x2="1856.52" y2="2053.80" style="stroke:#C10534;stroke-width:11.88"/>
	<line x1="1856.52" y1="2014.20" x2="1856.52" y2="1935.00" style="stroke:#C10534;stroke-width:11.88"/>
	<line x1="1856.52" y1="1895.40" x2="1856.52" y2="1816.20" style="stroke:#C10534;stroke-width:11.88"/>
	<line x1="1856.52" y1="1776.60" x2="1856.52" y2="1697.40" style="stroke:#C10534;stroke-width:11.88"/>
	<line x1="1856.52" y1="1657.80" x2="1856.52" y2="1578.42" style="stroke:#C10534;stroke-width:11.88"/>
	<line x1="1856.52" y1="1538.82" x2="1856.52" y2="1459.62" style="stroke:#C10534;stroke-width:11.88"/>
	<line x1="1856.52" y1="1420.02" x2="1856.52" y2="1340.82" style="stroke:#C10534;stroke-width:11.88"/>
	<line x1="1856.52" y1="1301.22" x2="1856.52" y2="1222.02" style="stroke:#C10534;stroke-width:11.88"/>
	<line x1="1856.52" y1="1182.42" x2="1856.52" y2="1103.22" style="stroke:#C10534;stroke-width:11.88"/>
	<line x1="1856.52" y1="1063.62" x2="1856.52" y2="984.42" style="stroke:#C10534;stroke-width:11.88"/>
	<line x1="1856.52" y1="944.64" x2="1856.52" y2="865.44" style="stroke:#C10534;stroke-width:11.88"/>
	<line x1="1856.52" y1="825.84" x2="1856.52" y2="746.64" style="stroke:#C10534;stroke-width:11.88"/>
	<line x1="1856.52" y1="707.04" x2="1856.52" y2="627.84" style="stroke:#C10534;stroke-width:11.88"/>
	<line x1="1856.52" y1="588.24" x2="1856.52" y2="509.04" style="stroke:#C10534;stroke-width:11.88"/>
	<line x1="1856.52" y1="469.44" x2="1856.52" y2="390.24" style="stroke:#C10534;stroke-width:11.88"/>
	<line x1="1856.52" y1="350.64" x2="1856.52" y2="271.26" style="stroke:#C10534;stroke-width:11.88"/>
	<line x1="1856.52" y1="231.66" x2="1856.52" y2="152.46" style="stroke:#C10534;stroke-width:11.88"/>
	<circle cx="2577.24" cy="839.52" r="36.18" style="fill:#000000"/>
	<circle cx="2577.24" cy="839.52" r="30.24" style="fill:none;stroke:#000000;stroke-width:11.88"/>
	<circle cx="2481.48" cy="1044.18" r="36.18" style="fill:#000000"/>
	<circle cx="2481.48" cy="1044.18" r="30.24" style="fill:none;stroke:#000000;stroke-width:11.88"/>
	<circle cx="2419.74" cy="1248.66" r="36.18" style="fill:#000000"/>
	<circle cx="2419.74" cy="1248.66" r="30.24" style="fill:none;stroke:#000000;stroke-width:11.88"/>
	<circle cx="2566.98" cy="1862.46" r="36.18" style="fill:#000000"/>
	<circle cx="2566.98" cy="1862.46" r="30.24" style="fill:none;stroke:#000000;stroke-width:11.88"/>
	<circle cx="2337.30" cy="2066.94" r="36.18" style="fill:#000000"/>
	<circle cx="2337.30" cy="2066.94" r="30.24" style="fill:none;stroke:#000000;stroke-width:11.88"/>
	<circle cx="2549.52" cy="2680.74" r="36.18" style="fill:#000000"/>
	<circle cx="2549.52" cy="2680.74" r="30.24" style="fill:none;stroke:#000000;stroke-width:11.88"/>
	<circle cx="2375.46" cy="2885.22" r="36.18" style="fill:#000000"/>
	<circle cx="2375.46" cy="2885.22" r="30.24" style="fill:none;stroke:#000000;stroke-width:11.88"/>
	<circle cx="2761.02" cy="3499.02" r="36.18" style="fill:#000000"/>
	<circle cx="2761.02" cy="3499.02" r="30.24" style="fill:none;stroke:#000000;stroke-width:11.88"/>
	<circle cx="2190.06" cy="3703.68" r="36.18" style="fill:#000000"/>
	<circle cx="2190.06" cy="3703.68" r="30.24" style="fill:none;stroke:#000000;stroke-width:11.88"/>
	<circle cx="1872.90" cy="4317.30" r="36.18" style="fill:#000000"/>
	<circle cx="1872.90" cy="4317.30" r="30.24" style="fill:none;stroke:#000000;stroke-width:11.88"/>
	<circle cx="2496.78" cy="4521.96" r="36.18" style="fill:#000000"/>
	<circle cx="2496.78" cy="4521.96" r="30.24" style="fill:none;stroke:#000000;stroke-width:11.88"/>
	<line x1="2311.02" y1="839.52" x2="2843.64" y2="839.52" style="stroke:#000000;stroke-width:11.88"/>
	<line x1="2843.64" y1="869.76" x2="2843.64" y2="809.28" stroke-linecap="round" style="stroke:#000000;stroke-width:11.88"/>
	<line x1="2311.02" y1="869.76" x2="2311.02" y2="809.28" stroke-linecap="round" style="stroke:#000000;stroke-width:11.88"/>
	<line x1="2214.54" y1="1044.00" x2="2748.78" y2="1044.00" style="stroke:#000000;stroke-width:11.88"/>
	<line x1="2748.78" y1="1074.24" x2="2748.78" y2="1013.76" stroke-linecap="round" style="stroke:#000000;stroke-width:11.88"/>
	<line x1="2214.54" y1="1074.24" x2="2214.54" y2="1013.76" stroke-linecap="round" style="stroke:#000000;stroke-width:11.88"/>
	<line x1="2152.44" y1="1248.66" x2="2687.04" y2="1248.66" style="stroke:#000000;stroke-width:11.88"/>
	<line x1="2687.04" y1="1278.90" x2="2687.04" y2="1218.42" stroke-linecap="round" style="stroke:#000000;stroke-width:11.88"/>
	<line x1="2152.44" y1="1278.90" x2="2152.44" y2="1218.42" stroke-linecap="round" style="stroke:#000000;stroke-width:11.88"/>
	<line x1="2144.34" y1="1862.28" x2="2989.98" y2="1862.28" style="stroke:#000000;stroke-width:11.88"/>
	<line x1="2989.98" y1="1892.52" x2="2989.98" y2="1832.04" stroke-linecap="round" style="stroke:#000000;stroke-width:11.88"/>
	<line x1="2144.34" y1="1892.52" x2="2144.34" y2="1832.04" stroke-linecap="round" style="stroke:#000000;stroke-width:11.88"/>
	<line x1="1993.50" y1="2066.94" x2="2681.28" y2="2066.94" style="stroke:#000000;stroke-width:11.88"/>
	<line x1="2681.28" y1="2097.18" x2="2681.28" y2="2036.70" stroke-linecap="round" style="stroke:#000000;stroke-width:11.88"/>
	<line x1="1993.50" y1="2097.18" x2="1993.50" y2="2036.70" stroke-linecap="round" style="stroke:#000000;stroke-width:11.88"/>
	<line x1="2045.70" y1="2680.56" x2="3053.52" y2="2680.56" style="stroke:#000000;stroke-width:11.88"/>
	<line x1="3053.52" y1="2710.80" x2="3053.52" y2="2650.32" stroke-linecap="round" style="stroke:#000000;stroke-width:11.88"/>
	<line x1="2045.70" y1="2710.80" x2="2045.70" y2="2650.32" stroke-linecap="round" style="stroke:#000000;stroke-width:11.88"/>
	<line x1="2061.18" y1="2885.22" x2="2689.74" y2="2885.22" style="stroke:#000000;stroke-width:11.88"/>
	<line x1="2689.74" y1="2915.46" x2="2689.74" y2="2854.98" stroke-linecap="round" style="stroke:#000000;stroke-width:11.88"/>
	<line x1="2061.18" y1="2915.46" x2="2061.18" y2="2854.98" stroke-linecap="round" style="stroke:#000000;stroke-width:11.88"/>
	<line x1="2373.48" y1="3499.02" x2="3148.92" y2="3499.02" style="stroke:#000000;stroke-width:11.88"/>
	<line x1="3148.92" y1="3529.26" x2="3148.92" y2="3468.78" stroke-linecap="round" style="stroke:#000000;stroke-width:11.88"/>
	<line x1="2373.48" y1="3529.26" x2="2373.48" y2="3468.78" stroke-linecap="round" style="stroke:#000000;stroke-width:11.88"/>
	<line x1="1801.98" y1="3703.50" x2="2578.32" y2="3703.50" style="stroke:#000000;stroke-width:11.88"/>
	<line x1="2578.32" y1="3733.74" x2="2578.32" y2="3673.26" stroke-linecap="round" style="stroke:#000000;stroke-width:11.88"/>
	<line x1="1801.98" y1="3733.74" x2="1801.98" y2="3673.26" stroke-linecap="round" style="stroke:#000000;stroke-width:11.88"/>
	<line x1="933.48" y1="4317.30" x2="2812.68" y2="4317.30" style="stroke:#000000;stroke-width:11.88"/>
	<line x1="2812.68" y1="4347.54" x2="2812.68" y2="4287.06" stroke-linecap="round" style="stroke:#000000;stroke-width:11.88"/>
	<line x1="933.48" y1="4347.54" x2="933.48" y2="4287.06" stroke-linecap="round" style="stroke:#000000;stroke-width:11.88"/>
	<line x1="2218.50" y1="4521.78" x2="2775.24" y2="4521.78" style="stroke:#000000;stroke-width:11.88"/>
	<line x1="2775.24" y1="4552.02" x2="2775.24" y2="4491.54" stroke-linecap="round" style="stroke:#000000;stroke-width:11.88"/>
	<line x1="2218.50" y1="4552.02" x2="2218.50" y2="4491.54" stroke-linecap="round" style="stroke:#000000;stroke-width:11.88"/>
	<text x="505.98" y="1891.18" style="font-family:'Helvetica';font-size:82.44px;fill:#000000">&lt;60</text>
	<text x="505.98" y="2095.84" style="font-family:'Helvetica';font-size:82.44px;fill:#000000">60+</text>
	<text x="505.98" y="2709.46" style="font-family:'Helvetica';font-size:82.44px;fill:#000000">Males</text>
	<text x="505.98" y="2914.12" style="font-family:'Helvetica';font-size:82.44px;fill:#000000">Females</text>
	<text x="505.98" y="3527.92" style="font-family:'Helvetica';font-size:82.44px;fill:#000000">Black</text>
	<text x="505.98" y="3732.40" style="font-family:'Helvetica';font-size:82.44px;fill:#000000">Not Black</text>
	<text x="505.98" y="4346.20" style="font-family:'Helvetica';font-size:82.44px;fill:#000000">None</text>
	<text x="505.98" y="4550.68" style="font-family:'Helvetica';font-size:82.44px;fill:#000000">1 or more</text>
	<text x="283.50" y="868.42" style="font-family:'Helvetica';font-size:82.44px;fill:#000000">Age-sex adjusted</text>
	<text x="283.50" y="1072.90" style="font-family:'Helvetica';font-size:82.44px;fill:#000000">+ IMD/ethnicity</text>
	<text x="283.50" y="1277.56" style="font-family:'Helvetica';font-size:82.44px;fill:#000000">+ obesity/smoking/comorbidities</text>
	<text x="283.50" y="1686.70" style="font-family:'Helvetica';font-size:82.44px;fill:#000000">By age</text>
	<text x="283.50" y="2504.98" style="font-family:'Helvetica';font-size:82.44px;fill:#000000">By sex</text>
	<text x="283.50" y="3323.26" style="font-family:'Helvetica';font-size:82.44px;fill:#000000">By ethnicity</text>
	<text x="283.50" y="4141.54" style="font-family:'Helvetica';font-size:82.44px;fill:#000000">By comorbidities</text>
	<text x="3004.38" y="1686.70" style="font-family:'Helvetica';font-size:82.44px;fill:#000000">p-interaction 0.407</text>
	<text x="3004.38" y="2504.98" style="font-family:'Helvetica';font-size:82.44px;fill:#000000">p-interaction 0.564</text>
	<text x="3004.38" y="3323.26" style="font-family:'Helvetica';font-size:82.44px;fill:#000000">p-interaction 0.045</text>
	<text x="3004.38" y="4141.54" style="font-family:'Helvetica';font-size:82.44px;fill:#000000">p-interaction 0.212</text>
	<line x1="138.60" y1="5222.70" x2="3821.40" y2="5222.70" style="stroke:#000000;stroke-width:7.92"/>
	<line x1="1387.08" y1="5222.70" x2="1387.08" y2="5277.60" style="stroke:#000000;stroke-width:7.92"/>
	<text x="1387.08" y="5401.31" style="font-family:'Helvetica';font-size:137.52px;fill:#000000" text-anchor="middle">.5</text>
	<line x1="1856.52" y1="5222.70" x2="1856.52" y2="5277.60" style="stroke:#000000;stroke-width:7.92"/>
	<text x="1856.52" y="5401.31" style="font-family:'Helvetica';font-size:137.52px;fill:#000000" text-anchor="middle">1</text>
	<line x1="2325.96" y1="5222.70" x2="2325.96" y2="5277.60" style="stroke:#000000;stroke-width:7.92"/>
	<text x="2325.96" y="5401.31" style="font-family:'Helvetica';font-size:137.52px;fill:#000000" text-anchor="middle">2</text>
	<line x1="2795.40" y1="5222.70" x2="2795.40" y2="5277.60" style="stroke:#000000;stroke-width:7.92"/>
	<text x="2795.40" y="5401.31" style="font-family:'Helvetica';font-size:137.52px;fill:#000000" text-anchor="middle">4</text>
	<text x="1980.00" y="5552.51" style="font-family:'Helvetica';font-size:137.52px;fill:#000000" text-anchor="middle">Hazard ratio and 95% CI</text>
</svg>
